<svg xmlns="http://www.w3.org/2000/svg" width="36" height="36" viewBox="0 0 36 36">
  <defs>
    <linearGradient id="ava-12-a" x1="50%" x2="50%" y1="0%" y2="99.739%">
      <stop offset="0%" stop-color="#FFF" stop-opacity=".4"/>
      <stop offset="100%" stop-color="#FFF" stop-opacity="0"/>
    </linearGradient>
  </defs>
  <g fill="none" fill-rule="evenodd">
    <circle cx="18" cy="18" r="18" fill="#00C8FF"/>
    <circle cx="18" cy="18" r="18" fill="url(#ava-12-a)"/>
    <path fill="#FFF" fill-rule="nonzero" d="M8.2173913,0.391304348 C8.60869565,0.586956522 9.39130435,1.87826087 9.39130435,2.73913043 C9.39130435,3.6 8.86695652,3.91304348 8.2173913,3.91304348 C7.56782609,3.91304348 7.04347826,3.79565217 7.04347826,2.93478261 C7.04347826,2.07391304 7.82608696,1.56521739 8.2173913,0.391304348 Z M13.6956522,7.04347826 C15.6521739,7.04347826 17.2173913,8.60869565 17.2173913,10.5652174 C17.2173913,11.786087 16.5991304,12.8582609 15.6521739,13.4921739 L15.6521739,18 L8.60869565,18 L1.56521739,18 L1.56521739,13.4921739 C0.61826087,12.8582609 0,11.786087 0,10.5652174 C0,8.60869565 1.56521739,7.04347826 3.52173913,7.04347826 L7.04347826,7.04347826 L7.04347826,4.69565217 L9.39130435,4.69565217 L9.39130435,7.04347826 L13.6956522,7.04347826 Z M8.60869565,12.5217391 C9.68925277,12.5217391 10.5652174,11.6457745 10.5652174,10.5652174 L11.7391304,10.5652174 C11.7391304,11.6457745 12.6150951,12.5217391 13.6956522,12.5217391 C14.7762093,12.5217391 15.6521739,11.6457745 15.6521739,10.5652174 C15.6521739,9.48466027 14.7762093,8.60869565 13.6956522,8.60869565 L3.52173913,8.60869565 C2.44118201,8.60869565 1.56521739,9.48466027 1.56521739,10.5652174 C1.56521739,11.6457745 2.44118201,12.5217391 3.52173913,12.5217391 C4.60229625,12.5217391 5.47826087,11.6457745 5.47826087,10.5652174 L6.65217391,10.5652174 C6.65217391,11.6457745 7.52813853,12.5217391 8.60869565,12.5217391 Z" transform="translate(9.391 9.391)"/>
    <rect width="36" height="36"/>
  </g>
</svg>
