<svg xmlns="http://www.w3.org/2000/svg" width="36" height="36" viewBox="0 0 36 36">
  <defs>
    <linearGradient id="ava-13-a" x1="50%" x2="50%" y1="0%" y2="99.739%">
      <stop offset="0%" stop-color="#FFF" stop-opacity=".4"/>
      <stop offset="100%" stop-color="#FFF" stop-opacity="0"/>
    </linearGradient>
  </defs>
  <g fill="none" fill-rule="evenodd">
    <circle cx="18" cy="18" r="18" fill="#0DDEBA"/>
    <circle cx="18" cy="18" r="18" fill="url(#ava-13-a)"/>
    <path fill="#FFF" d="M14.9243977,5.15923567 C15.1038493,5.15923567 15.3996123,4.75380776 15.8116865,3.94295209 C16.0177237,3.52423151 16.173913,3.18526724 16.2802548,2.92605926 C16.3865966,2.66685129 16.4397674,2.48407648 16.4397674,2.3777347 C16.4397674,2.24480758 16.3899197,2.13348103 16.2902243,2.04375519 C16.1905289,1.95402935 16.0742176,1.90916644 15.9412905,1.90916644 L15.6920521,1.95901412 L15.4328441,2.02880089 C15.1470506,2.1152036 14.8629188,2.21489897 14.5804486,2.32788701 C14.2979785,2.44087505 14.0038771,2.56383278 13.6981446,2.6967599 L13.558571,2.75657713 C13.2328994,2.90279706 13.0700637,3.01910823 13.0700637,3.10551094 C13.0700637,3.20520631 13.2229299,3.32816389 13.5286624,3.47438383 C14.0005538,3.70700632 14.4059817,4.20548319 14.744946,4.96981446 C14.8047632,5.09609532 14.8645804,5.15923567 14.9243977,5.15923567 Z M12.3223484,9.88479646 C12.6347272,9.88479646 12.9005816,9.765162 13.1199114,9.5258931 C13.3525339,9.27333154 13.4688452,9.00083074 13.4688452,8.70839103 C13.4688452,8.46912213 13.3890889,8.2730545 13.2295763,8.12018831 C13.0700637,7.96732212 12.8739961,7.89088895 12.6413736,7.89088895 C12.3489339,7.89088895 12.0797564,8.01384653 11.833841,8.25976184 C11.6012185,8.49238433 11.4849072,8.76156184 11.4849072,9.06729438 C11.4849072,9.30656328 11.5630019,9.5026309 11.7191914,9.65549709 C11.8753808,9.80836328 12.0764331,9.88479646 12.3223484,9.88479646 Z M10.497923,16.9033509 C10.7837165,16.9033509 11.016339,16.8618111 11.1957906,16.7787317 C11.3752423,16.6956522 11.4649682,16.5909721 11.4649682,16.4646912 C11.4649682,16.3782885 11.42509,16.3350872 11.3453337,16.3350872 L11.2157297,16.3649958 C11.0695098,16.4447521 10.9448906,16.4912767 10.8418721,16.5045694 C10.7388536,16.517862 10.6208806,16.5245084 10.4879535,16.5245084 C9.93630578,16.5245084 9.66048186,16.3085017 9.66048186,15.8764885 C10.5245085,15.8366104 10.9565217,15.5009692 10.9565217,14.8695652 C10.9565217,14.5837718 10.8003323,14.3345333 10.4879535,14.1218499 C10.3350873,14.0288009 10.1689283,13.9573525 9.9894766,13.9075048 C9.81002492,13.8576572 9.61728058,13.8327333 9.41124342,13.8327333 C9.19856001,13.8327333 9.00415402,13.8609803 8.82802548,13.9174744 C8.65189693,13.9739685 8.4973691,14.0520631 8.36444198,14.1517585 C8.23151487,14.2514539 8.12849621,14.3710883 8.05538632,14.5106619 C7.98227643,14.6502354 7.94572141,14.8031016 7.94572141,14.9692606 C7.94572141,15.235115 8.06037109,15.4544448 8.28967045,15.6272501 C8.51896981,15.8000553 8.84297978,15.886458 9.26170036,15.886458 C9.26170036,16.145666 9.19357524,16.3168098 9.05732484,16.3998892 C8.92107444,16.4829687 8.72002221,16.5245084 8.45416782,16.5245084 C8.21489892,16.5245084 7.99889222,16.4680143 7.80614788,16.3550263 L7.64663528,16.3350872 C7.51370816,16.3350872 7.44724453,16.3915813 7.44724453,16.5045694 C7.44724453,16.5776793 7.47715314,16.6424813 7.53697037,16.6989754 C7.59678759,16.7554694 7.67155912,16.8036555 7.76128496,16.8435336 C7.8510108,16.8834118 7.95070618,16.9133204 8.06037109,16.9332595 C8.170036,16.9531986 8.27803927,16.9631681 8.38438106,16.9631681 C8.49072284,16.9631681 8.62198832,16.9448907 8.77817779,16.9083356 C8.93436726,16.8717806 9.10883417,16.8069786 9.30157851,16.7139297 L9.48103019,16.684021 C9.50096926,16.684021 9.53253951,16.6873442 9.57574079,16.6939906 C9.61894207,16.700637 9.67709781,16.7205761 9.7502077,16.7538078 C9.84325666,16.793686 9.95292158,16.8285793 10.0792024,16.858488 C10.2054833,16.8883966 10.3450568,16.9033509 10.497923,16.9033509 Z M6.44032124,9.88479646 C6.66629748,9.88479646 6.86070346,9.81168656 7.02353919,9.66546663 C7.18637491,9.5192467 7.26779286,9.31985594 7.26779286,9.06729438 C7.26779286,8.92107444 7.23788424,8.77651615 7.17806702,8.6336195 C7.11824979,8.49072284 7.03683185,8.36444198 6.93381335,8.25477707 C6.83079484,8.14511216 6.70783711,8.05704796 6.56494046,7.99058433 C6.42204381,7.92412069 6.2708391,7.89088895 6.1113265,7.89088895 C5.8720576,7.89088895 5.67598998,7.96898361 5.52312379,8.12517308 C5.3702576,8.28136255 5.29382443,8.47909166 5.29382443,8.71836056 C5.29382443,8.87787317 5.32539468,9.02741623 5.38853503,9.16698975 C5.45167539,9.30656328 5.53641645,9.42952086 5.64275824,9.53586264 C5.74910002,9.64220443 5.87039596,9.7269455 6.00664636,9.79008585 C6.14289676,9.8532262 6.28745505,9.88479646 6.44032124,9.88479646 Z M5.84214899,3.10551094 C5.84214899,3.02575464 5.68263639,2.90944332 5.36361119,2.75657713 L5.20409859,2.6967599 C4.94489061,2.58377186 4.69565217,2.47909172 4.45638327,2.38271947 C4.21711437,2.28634722 3.99612291,2.20326779 3.79340903,2.13348103 C3.59069515,2.06369427 3.41622824,2.00886181 3.27000831,1.96898366 C3.12378837,1.92910551 3.01744674,1.90916644 2.95098311,1.90916644 C2.81805599,1.90916644 2.70340631,1.95236771 2.60703406,2.03877042 C2.51066182,2.12517313 2.46247577,2.23816117 2.46247577,2.3777347 C2.46247577,2.43090552 2.4807532,2.50733869 2.51730822,2.60703406 C2.55386325,2.70672944 2.60204929,2.82968702 2.66186652,2.97590695 C2.76156189,3.22182226 2.86790368,3.46607593 2.98089172,3.70866796 C3.09387976,3.95125999 3.21683749,4.19551366 3.34976461,4.44142897 C3.61561899,4.91996677 3.82497928,5.15923567 3.97784547,5.15923567 C4.04430911,5.15923567 4.11077259,5.09609532 4.17723622,4.96981446 C4.34339523,4.59097203 4.5245084,4.27859324 4.72057602,4.03267793 C4.91664364,3.78676262 5.13763495,3.60066469 5.38355026,3.47438383 C5.6892828,3.32816389 5.84214899,3.20520631 5.84214899,3.10551094 Z M18.7826087,11.6394351 C18.7826087,11.7258378 18.7560232,11.8122403 18.7028524,11.898643 C18.6496816,11.9850457 18.566602,12.028247 18.453614,12.028247 C18.3871503,12.028247 18.3173636,12.0116311 18.2442537,11.9783993 C18.1711438,11.9451676 18.0963722,11.9086126 18.0199391,11.8687344 C17.9435059,11.8288563 17.870396,11.7889781 17.8006092,11.7491 C17.7308225,11.7092218 17.6693436,11.6826363 17.6161728,11.6693437 L17.4167821,11.6394351 C17.2838549,11.6394351 17.2173913,11.6992523 17.2173913,11.8188867 C17.2173913,11.8654113 17.2406535,11.9302133 17.2871781,12.0132927 C17.3337026,12.0963721 17.396843,12.2043756 17.4765993,12.3373027 C17.6494045,12.6098033 17.7358073,12.8224869 17.7358073,12.9753531 C17.7358073,13.0816949 17.6959291,13.1764055 17.6161728,13.2594849 C17.5364165,13.3425643 17.4201052,13.3841041 17.267239,13.3841041 C17.1409581,13.3841041 16.9747993,13.3176405 16.7687621,13.1847134 C16.5494323,13.0384934 16.3799502,12.9653836 16.2603157,12.9653836 C16.1872058,12.9653836 16.1506508,13.0252008 16.1506508,13.1448352 C16.1506508,13.2245915 16.162282,13.3026862 16.1855442,13.3791194 C16.2088064,13.4555525 16.2353919,13.5336472 16.2653005,13.6134035 C16.2952091,13.6931598 16.3234561,13.7729161 16.3500415,13.8526724 C16.376627,13.9324287 16.3899197,14.012185 16.3899197,14.0919413 C16.3899197,14.2780394 16.3450568,14.4076434 16.2553309,14.4807533 C16.1656051,14.5538631 16.0841872,14.5904182 16.0110773,14.5904182 C15.8980892,14.5904182 15.7452229,14.5339241 15.5524785,14.420936 C15.3132096,14.2813625 15.0872334,14.1800055 14.87455,14.1168651 C14.6618666,14.0537248 14.4624758,14.0221545 14.2763777,14.0221545 C13.7712544,14.0221545 13.4655221,14.2846856 13.3591803,14.809748 L13.2395458,15.3879812 C13.2196068,15.5009692 13.1913598,15.5990031 13.1548048,15.6820825 C13.1182497,15.765162 13.0800332,15.8532263 13.0401551,15.9462753 L12.7709776,16.5145389 C12.6380505,16.793686 12.5167544,17.0312932 12.4070894,17.2273608 C12.2974245,17.4234285 12.186098,17.5879258 12.0731099,17.7208529 C11.9667682,17.8404874 11.8404875,17.9418444 11.6942675,18.0249238 C11.5480476,18.1080033 11.3852119,18.1860981 11.2057602,18.259208 L10.6873442,18.4685683 C10.5544171,18.5217391 10.4098588,18.566602 10.2536693,18.603157 C10.0974799,18.639712 9.91636671,18.6579895 9.71032955,18.6579895 C8.66685124,18.6579895 7.96566048,18.5150928 7.60675713,18.2292994 C7.40736638,18.0631404 7.21794517,17.8969815 7.03849349,17.7308225 C6.85904182,17.5646635 6.69288281,17.3918582 6.54001662,17.2124065 C6.38715042,17.0329549 6.26917746,16.8667959 6.18609803,16.7139297 C6.10301861,16.5610635 6.01495426,16.368319 5.92190529,16.1356965 C5.82885632,15.9097202 5.74577674,15.6953752 5.67266685,15.4926613 C5.59955696,15.2899474 5.53641645,15.0922182 5.48324564,14.8994738 C5.4500139,14.7798394 5.40847411,14.6701745 5.35862642,14.5704791 C5.30877873,14.4707837 5.24065361,14.3860426 5.1542509,14.3162559 C5.06784819,14.2464691 4.95652179,14.1916367 4.82027139,14.1517585 C4.684021,14.1118804 4.5162005,14.0919413 4.31680975,14.0919413 C3.93132091,14.0919413 3.60232617,14.1567433 3.32982553,14.2863473 C3.05732489,14.4159513 2.79479364,14.5771255 2.54223207,14.7698698 C2.39601213,14.8828579 2.26308502,14.939352 2.14345057,14.939352 C2.06369427,14.939352 1.97563007,14.8961507 1.87925782,14.809748 C1.78288558,14.7233453 1.73469953,14.5771255 1.73469953,14.3710883 C1.73469953,14.2780394 1.7479922,14.1816671 1.77457768,14.0819718 C1.80116316,13.9822764 1.82941014,13.8842426 1.85931875,13.7878704 C1.88922736,13.6914981 1.91747433,13.5967875 1.94405982,13.5037386 C1.9706453,13.4106896 1.98393797,13.3176405 1.98393797,13.2245915 C1.98393797,13.1847134 1.98061484,13.1464969 1.97396843,13.1099418 C1.96732202,13.0733868 1.95735248,13.0384934 1.94405982,13.0052617 C1.75796173,13.0783716 1.58847959,13.14982 1.4356134,13.2196068 C1.28274721,13.2893935 1.11991133,13.3242869 0.947106065,13.3242869 L0.628080864,13.3242869 L0.628080864,13.2644697 C0.628080864,13.0185544 0.68291332,12.8075326 0.792578233,12.631404 C0.902243146,12.4552755 1.00692329,12.3040709 1.10661867,12.1777901 C1.22625312,12.0182775 1.31764059,11.8903351 1.38078095,11.7939629 C1.4439213,11.6975906 1.47549155,11.6128496 1.47549155,11.5397397 L1.46552202,11.4599834 C1.31265582,11.4599834 1.15646635,11.4500138 0.996953752,11.4300748 C0.837441152,11.4101357 0.671282143,11.3735807 0.498476876,11.3204099 C0.166159009,11.2207145 0,11.1044032 0,10.971476 C0,10.7920244 0.249238438,10.4729992 0.747715314,10.0144004 C0.900581506,9.86818051 1.06009411,9.70368314 1.22625312,9.52090834 C1.39241212,9.33813353 1.56854052,9.13375801 1.7546386,8.90778178 C2.13348103,8.43589039 2.40764331,8.00387699 2.57712545,7.6117419 C2.74660759,7.21960681 2.83134866,6.88728879 2.83134866,6.61478815 C2.83134866,6.52838544 2.7682083,6.40210473 2.64192744,6.23594572 C2.02381612,5.3852119 1.5718638,4.57601772 1.28607034,3.80836333 C1.00027688,3.04070894 0.857380227,2.3212406 0.857380227,1.64995846 C0.857380227,0.633065633 1.26280814,0.124619219 2.07366381,0.124619219 C2.43256716,0.124619219 2.84464132,0.196067622 3.30988646,0.338964276 C3.77513159,0.48186093 4.3001938,0.692882858 4.88507339,0.972029909 L6.9088895,1.95901412 C7.36748823,1.8194406 7.80614788,1.71642209 8.22486846,1.64995846 C8.64358903,1.58349483 9.05234007,1.55026309 9.45112157,1.55026309 C10.3350873,1.55026309 11.182498,1.68651348 11.9933536,1.95901412 L14.0171698,0.962060371 C15.1603434,0.40376627 16.09748,0.124619219 16.8285793,0.124619219 C17.6327888,0.124619219 18.0348934,0.609803429 18.0348934,1.5801717 C18.0348934,2.21157569 17.9318749,2.87787322 17.7258377,3.57906397 C17.5198006,4.28025473 17.154251,4.97978399 16.6291886,5.67765162 L16.3899197,5.99667682 C16.2171144,6.22265306 16.0958183,6.42038217 16.0260316,6.5898643 C15.9562448,6.75934644 15.9213514,6.92384381 15.9213514,7.08335641 C15.9213514,7.46884525 16.1107726,7.92412069 16.4896151,8.44918305 L17.2273608,9.48601495 C17.3536417,9.65882022 17.4732762,9.8216561 17.5862642,9.97452229 C17.6992522,10.1273885 17.82221,10.2736084 17.9551371,10.4131819 C18.2276377,10.692329 18.4336749,10.9332595 18.5732484,11.1359734 C18.7128219,11.3386873 18.7826087,11.5065079 18.7826087,11.6394351 Z M6.50013847,9.49598449 C6.42702857,9.49598449 6.35558017,9.45278321 6.28579341,9.3663805 C6.21600665,9.27997779 6.18111327,9.19025196 6.18111327,9.09720299 C6.18111327,8.98421495 6.21600665,8.87953481 6.28579341,8.78316256 C6.35558017,8.68679031 6.42702857,8.63860426 6.50013847,8.63860426 C6.61977292,8.63860426 6.71282188,8.68679031 6.77928552,8.78316256 C6.84574915,8.87953481 6.87898089,8.98421495 6.87898089,9.09720299 C6.87898089,9.19025196 6.84574915,9.27997779 6.77928552,9.3663805 C6.71282188,9.45278321 6.61977292,9.49598449 6.50013847,9.49598449 Z M12.0731099,9.54583218 C12.0000001,9.54583218 11.9285516,9.5026309 11.8587649,9.41622819 C11.7889781,9.32982548 11.7540847,9.24009964 11.7540847,9.14705068 C11.7540847,9.03406264 11.7889781,8.92938249 11.8587649,8.83301025 C11.9285516,8.736638 12.0000001,8.68845195 12.0731099,8.68845195 C12.1927444,8.68845195 12.2857934,8.736638 12.352257,8.83301025 C12.4187206,8.92938249 12.4519524,9.03406264 12.4519524,9.14705068 C12.4519524,9.24009964 12.4187206,9.32982548 12.352257,9.41622819 C12.2857934,9.5026309 12.1927444,9.54583218 12.0731099,9.54583218 Z" transform="translate(8.609 8.609)"/>
    <rect width="36" height="36"/>
  </g>
</svg>
