<svg xmlns="http://www.w3.org/2000/svg" width="36" height="36" viewBox="0 0 36 36">
  <defs>
    <linearGradient id="ava-8-a" x1="50%" x2="50%" y1="0%" y2="99.739%">
      <stop offset="0%" stop-color="#FFF" stop-opacity=".4"/>
      <stop offset="100%" stop-color="#FFF" stop-opacity="0"/>
    </linearGradient>
  </defs>
  <g fill="none" fill-rule="evenodd">
    <circle cx="18" cy="18" r="18" fill="#785AE1"/>
    <circle cx="18" cy="18" r="18" fill="url(#ava-8-a)"/>
    <path fill="#FFF" fill-rule="nonzero" d="M0,17.2173913 L16.9043478,17.2173913 L16.9043478,15.3043478 L0,15.3043478 L0,17.2173913 Z M16.9043478,4.7826087 L15.026087,4.7826087 L15.026087,1.91304348 L16.9043478,1.91304348 L16.9043478,4.7826087 Z M16.9043478,0 L1.87826087,0 L1.87826087,9.56521739 C1.87826087,11.6783069 3.56011294,13.3913043 5.63478261,13.3913043 L11.2695652,13.3913043 C13.3442349,13.3913043 15.026087,11.6783069 15.026087,9.56521739 L15.026087,6.69565217 L16.9043478,6.69565217 C17.9416827,6.69565217 18.7826087,5.83915343 18.7826087,4.7826087 L18.7826087,1.91304348 C18.7826087,0.851304348 17.9373913,0 16.9043478,0 Z" transform="translate(8.609 9.391)"/>
    <rect width="36" height="36"/>
  </g>
</svg>
