<svg xmlns="http://www.w3.org/2000/svg" width="36" height="36" viewBox="0 0 36 36">
  <defs>
    <linearGradient id="ava-7-a" x1="50%" x2="50%" y1="0%" y2="99.739%">
      <stop offset="0%" stop-color="#FFF" stop-opacity=".4"/>
      <stop offset="100%" stop-color="#FFF" stop-opacity="0"/>
    </linearGradient>
  </defs>
  <g fill="none" fill-rule="evenodd">
    <circle cx="18" cy="18" r="18" fill="#67DC67"/>
    <circle cx="18" cy="18" r="18" fill="url(#ava-7-a)"/>
    <path fill="#FFF" d="M23.011334,15.3355717 L23.4825559,15.4435601 C23.9668696,15.5548213 24.3480974,15.6742618 24.6262506,15.801885 C24.9044038,15.9295082 25.0434783,16.0653104 25.0434783,16.2092956 C25.0434783,16.4187286 24.7375144,16.672335 24.1255774,16.9701225 C23.5136404,17.2679101 22.7233699,17.4168016 21.7547424,17.4168016 C21.257339,17.4168016 20.7861219,17.3513548 20.3410768,17.2204592 C19.8960317,17.0895635 19.4837167,16.883406 19.1041194,16.6019805 C18.0700441,17.2041003 16.9018182,17.6753174 15.5994069,18.015646 C14.2969955,18.3559746 12.997876,18.5261364 11.7020094,18.5261364 C10.340695,18.5261364 9.02357768,18.3412491 7.75061783,17.971469 C6.47765798,17.6016889 5.36669811,17.0928398 4.41770491,16.4449065 C4.09701065,16.8310486 3.70596587,17.1271955 3.24455883,17.3333561 C2.78315178,17.5395167 2.30375379,17.6425954 1.80635045,17.6425954 C1.42020839,17.6425954 1.02261892,17.5738762 0.613570126,17.4364358 C0.20452133,17.2989954 0,17.1255614 0,16.9161284 C0,16.778688 0.135802163,16.6117986 0.407410564,16.4154551 C0.679018964,16.2191117 1.02752331,16.0096819 1.45293406,15.7871593 L2.13031548,15.4239258 C2.35283802,15.3061198 2.57208489,15.1784985 2.78806265,15.0410581 C2.21212195,14.4258487 1.73599629,13.7173868 1.3596714,12.9156512 C0.983346507,12.1139155 0.752646447,11.2778323 0.667564297,10.4073765 C1.0406168,10.1390405 1.49547224,9.92142977 2.03214426,9.75453786 C2.56881628,9.58764595 3.11529727,9.50420125 3.67160363,9.50420125 C4.48315644,9.50420125 5.43377159,9.75453536 6.52347758,10.2552111 C7.61318357,10.7558868 8.46235613,11.0863933 9.07102074,11.2467404 C9.67968535,11.4070875 10.3537877,11.4872599 11.0933479,11.4872599 C11.2831465,11.4872599 11.4745785,11.4610812 11.6676495,11.4087229 C11.8607205,11.3563647 12.0423355,11.2843732 12.2124998,11.1927462 L12.389208,11.0847579 C12.5004693,11.0127653 12.5871863,10.94241 12.6493617,10.8736898 C12.7115371,10.8049696 12.7426244,10.7411589 12.7426244,10.6822559 C12.7426244,10.6429872 12.7311712,10.6119 12.7082644,10.5889932 C12.6853577,10.5660865 12.6608152,10.5546333 12.634636,10.5546333 C12.5953673,10.5546333 12.5560993,10.5644503 12.5168306,10.5840847 L12.4088422,10.6528045 C12.2648571,10.7378867 12.1176017,10.798425 11.9670717,10.8344213 C11.8165418,10.8704176 11.6660141,10.8884155 11.5154841,10.8884155 C10.5534014,10.8884155 9.38517552,10.3632047 8.01077156,9.31276737 C6.63636761,8.26233006 5.25216725,7.73711929 3.85812895,7.73711929 C3.13820307,7.73711929 2.49846035,7.85819592 1.9388816,8.1003528 C1.37930285,8.34250969 0.942445284,8.68937787 0.628295809,9.14096774 C0.700288397,7.85819071 1.11587574,6.69487339 1.8750703,5.65098086 C2.63426487,4.60708833 3.64541833,3.79718387 4.90856101,3.22124316 C6.17170369,2.64530246 7.51336361,2.35733642 8.93358103,2.35733642 C10.1378207,2.35733642 11.2536891,2.5651301 12.2812196,2.98072367 C13.3087502,3.39631725 14.6242314,4.26348769 16.2277027,5.58226101 C17.831174,6.90103432 18.9797658,7.56041109 19.6735125,7.56041109 C20.1774606,7.56041109 20.5815948,7.36407062 20.8859271,6.97138377 C21.1902594,6.57869693 21.3424233,6.12056915 21.3424233,5.59698669 C21.3424233,5.21738941 21.2884296,4.90324464 21.1804407,4.65454298 C21.0724519,4.40584131 20.910471,4.28149234 20.6944932,4.28149234 C20.5766872,4.28149234 20.4556105,4.30112639 20.3312597,4.34039507 L19.9974775,4.45820054 C19.8665819,4.49746922 19.742233,4.5318288 19.6244269,4.56128032 C19.5066209,4.59073183 19.3757272,4.60545737 19.231742,4.60545737 C18.7212491,4.60545737 18.2614852,4.44674881 17.8524364,4.12932695 C17.4433876,3.81190508 17.2388663,3.52884756 17.2388663,3.28014589 C17.2388663,3.18851896 17.2666812,3.12798065 17.3223118,3.09852914 C17.3779424,3.06907762 17.4417531,3.05435209 17.5137457,3.05435209 C17.5661039,3.05435209 17.6168252,3.05762443 17.6659111,3.06416921 C17.7149969,3.07071399 17.7591735,3.07398633 17.7984422,3.07398633 C17.9162483,3.07398633 18.0438696,3.03471824 18.18131,2.95618087 L18.6132633,2.70093569 C18.7703381,2.60930876 18.9404998,2.52422789 19.1237537,2.44569052 C19.3070075,2.36715315 19.5098927,2.32788506 19.7324153,2.32788506 C20.0661991,2.32788506 20.362346,2.40151274 20.6208648,2.5487703 C20.8793836,2.69602787 21.0348198,2.76965555 21.0871781,2.76965555 C21.1264468,2.76965555 21.1542617,2.74511299 21.1706236,2.69602713 C21.1869856,2.64694128 21.1984388,2.58313062 21.2049836,2.50459325 L21.2148007,2.26898233 C21.2148007,2.03337022 21.3096986,1.79448931 21.4994972,1.55233242 C21.6892959,1.31017553 21.9510832,1.15637549 22.284867,1.09092768 L22.6677347,1.02220783 C23.0669664,0.956760022 23.3467515,0.812777006 23.5070987,0.590254461 C23.6674458,0.367731916 23.7836139,0.256472313 23.8556065,0.256472313 C23.9145095,0.256472313 24.0077713,0.384093623 24.1353945,0.639340071 C24.2630177,0.89458652 24.3268284,1.23163767 24.3268284,1.65050364 C24.3268284,1.94501877 24.2335666,2.22153161 24.0470404,2.48005045 C23.8605141,2.73856929 23.5447332,2.95454381 23.0996881,3.1279805 C22.654643,3.30141719 22.4321238,3.50593852 22.4321238,3.74155063 C22.4321238,3.93789405 22.6219196,4.21767923 23.0015169,4.58091456 C23.3811142,4.94414989 23.6854419,5.50044791 23.9145092,6.2498253 C24.1435766,6.9992027 24.2581085,7.76983907 24.2581085,8.56175754 C24.2581085,9.76599719 24.0077744,10.8900464 23.5070987,11.9339389 C23.0064229,12.9778315 22.3208674,13.931719 21.4504116,14.79563 C21.6925685,14.9068913 21.9461749,15.00997 22.2112386,15.1048694 C22.4763022,15.1997687 22.742998,15.2766687 23.011334,15.3355717 Z M12.4039337,7.55059397 C12.2043179,7.35425055 11.9834348,7.25608031 11.7412779,7.25608031 C11.499121,7.25608031 11.3060529,7.33788884 11.1620677,7.50150836 C11.0180826,7.66512788 10.946091,7.86801304 10.946091,8.11016992 C10.946091,8.37196115 11.0393528,8.6092059 11.225879,8.82191127 C11.4124053,9.03461664 11.630016,9.14096774 11.8787176,9.14096774 C12.0946954,9.14096774 12.2861274,9.05425069 12.4530193,8.880814 C12.6199112,8.70737731 12.7033559,8.51267301 12.7033559,8.29669524 C12.7033559,7.99563533 12.6035495,7.74693739 12.4039337,7.55059397 Z" transform="translate(5.478 8.609)"/>
    <rect width="36" height="36"/>
  </g>
</svg>
