<svg xmlns="http://www.w3.org/2000/svg" width="36" height="36" viewBox="0 0 36 36">
  <defs>
    <linearGradient id="ava-10-a" x1="50%" x2="50%" y1="0%" y2="99.739%">
      <stop offset="0%" stop-color="#FFF" stop-opacity=".4"/>
      <stop offset="100%" stop-color="#FFF" stop-opacity="0"/>
    </linearGradient>
  </defs>
  <g fill="none" fill-rule="evenodd">
    <circle cx="18" cy="18" r="18" fill="#4BDEF5"/>
    <circle cx="18" cy="18" r="18" fill="url(#ava-10-a)"/>
    <path fill="#FFF" fill-rule="nonzero" d="M13.1478261,6.57391304 L15.9652174,6.57391304 L11.2695652,13.1478261 L13.1478261,6.57391304 Z M7.51304348,6.57391304 L11.2695652,6.57391304 L9.39130435,14.0869565 L7.51304348,6.57391304 Z M2.8173913,6.57391304 L5.63478261,6.57391304 L7.51304348,13.1478261 L2.8173913,6.57391304 Z M12.2086957,1.87826087 L14.0869565,1.87826087 L15.9652174,4.69565217 L13.1478261,4.69565217 L12.2086957,1.87826087 Z M8.45217391,1.87826087 L10.3304348,1.87826087 L11.2695652,4.69565217 L7.51304348,4.69565217 L8.45217391,1.87826087 Z M4.69565217,1.87826087 L6.57391304,1.87826087 L5.63478261,4.69565217 L2.8173913,4.69565217 L4.69565217,1.87826087 Z M3.75652174,0 L0,5.63478261 L9.39130435,18.7826087 L18.7826087,5.63478261 L15.026087,0 L3.75652174,0 Z" transform="translate(8.609 8.609)"/>
    <rect width="36" height="36"/>
  </g>
</svg>
