<svg xmlns="http://www.w3.org/2000/svg" width="36" height="36" viewBox="0 0 36 36">
  <defs>
    <linearGradient id="ava-16-a" x1="50%" x2="50%" y1="0%" y2="99.739%">
      <stop offset="0%" stop-color="#FFF" stop-opacity=".4"/>
      <stop offset="100%" stop-color="#FFF" stop-opacity="0"/>
    </linearGradient>
  </defs>
  <g fill="none" fill-rule="evenodd">
    <circle cx="18" cy="18" r="18" fill="#6262FF"/>
    <circle cx="18" cy="18" r="18" fill="url(#ava-16-a)"/>
    <path fill="#FFF" fill-rule="nonzero" d="M2.88963211,4.17057693e-16 C1.87826087,4.17057693e-16 0.915050167,0.15026087 0,0.432 C3.91063545,1.62469565 6.74247492,5.16521739 6.74247492,9.39130435 C6.74247492,13.6173913 3.91063545,17.157913 0,18.3506087 C0.915050167,18.6323478 1.87826087,18.7826087 2.88963211,18.7826087 C8.20929792,18.7826087 12.5217391,14.5779785 12.5217391,9.39130435 C12.5217391,6.90057557 11.5069308,4.51186057 9.7005603,2.75064936 C7.89418983,0.989438153 5.44422572,2.08528846e-16 2.88963211,0 L2.88963211,4.17057693e-16 Z" transform="translate(11.74 8.609)"/>
    <rect width="36" height="36"/>
  </g>
</svg>
