<svg xmlns="http://www.w3.org/2000/svg" width="36" height="36" viewBox="0 0 36 36">
  <defs>
    <linearGradient id="ava-11-a" x1="50%" x2="50%" y1="0%" y2="99.739%">
      <stop offset="0%" stop-color="#FFF" stop-opacity=".4"/>
      <stop offset="100%" stop-color="#FFF" stop-opacity="0"/>
    </linearGradient>
  </defs>
  <g fill="none" fill-rule="evenodd">
    <circle cx="18" cy="18" r="18" fill="#A2C20B"/>
    <circle cx="18" cy="18" r="18" fill="url(#ava-11-a)"/>
    <path fill="#FFF" fill-rule="nonzero" d="M17.6086957,10.9565217 C13.9382609,10.9565217 10.9565217,13.0617391 10.9565217,15.6521739 C10.9565217,16.5834783 11.3478261,17.4834783 12.0834783,18.2582609 C11.3713043,19.173913 10.9565217,20.3165217 10.9565217,21.5217391 C10.9565217,22.413913 10.9565217,23.3452174 10.9565217,24.2608696 C10.9565217,25.1295652 11.6530435,25.826087 12.5217391,25.826087 L22.6956522,25.826087 C23.5643478,25.826087 24.2608696,25.1295652 24.2608696,24.2608696 C24.2608696,23.3608696 24.2608696,22.3904348 24.2608696,21.5217391 C24.2608696,20.5669565 23.9947826,19.62 23.4782609,18.7826087 L25.0434783,17.2173913 L22.6956522,14.8695652 L21.0521739,16.5130435 C20.0191304,15.9495652 18.8217391,15.6521739 17.6086957,15.6521739 C16.1608696,15.6521739 14.8304348,16.0669565 13.7347826,16.7556522 C13.4530435,16.4113043 13.3043478,16.0434783 13.3043478,15.6521739 C13.3043478,14.2513043 15.2295652,13.1086957 17.6086957,13.1086957 C18.7278261,13.1086957 19.8,13.3669565 20.606087,13.8286957 L22.1869565,12.2478261 C20.9504348,11.4182609 19.3147826,10.9565217 17.6086957,10.9565217 Z M17.6086957,17.2173913 C17.8747826,17.2173913 18.1330435,17.2486957 18.3913043,17.2878261 C15.9573913,17.6634783 14.0869565,19.7608696 14.0869565,22.3043478 L14.0869565,24.2608696 L12.5217391,24.2608696 L12.5217391,22.3043478 C12.5217391,19.4948993 14.7992471,17.2173913 17.6086957,17.2173913 Z"/>
    <rect width="36" height="36"/>
  </g>
</svg>
