<svg xmlns="http://www.w3.org/2000/svg" width="36" height="36" viewBox="0 0 36 36">
  <defs>
    <linearGradient id="ava-1-a" x1="50%" x2="50%" y1="0%" y2="99.739%">
      <stop offset="0%" stop-color="#FFF" stop-opacity=".4"/>
      <stop offset="100%" stop-color="#FFF" stop-opacity="0"/>
    </linearGradient>
  </defs>
  <g fill="none" fill-rule="evenodd">
    <circle cx="18" cy="18" r="18" fill="#B958E3"/>
    <circle cx="18" cy="18" r="18" fill="url(#ava-1-a)"/>
    <path fill="#FFF" fill-rule="nonzero" d="M10.173913,13.8735178 C10.6918577,14.6504348 11.3855336,15.2886166 12.2086957,15.7233202 L10.173913,17.7581028 L8.13913043,15.7233202 C8.96229249,15.2886166 9.66521739,14.6504348 10.173913,13.8735178 L10.173913,13.8735178 Z M14.798419,9.43399209 C13.7768013,9.43399209 12.9486166,10.2621768 12.9486166,11.2837945 C12.9486166,12.3054121 13.7768013,13.1335968 14.798419,13.1335968 C15.8200366,13.1335968 16.6482213,12.3054121 16.6482213,11.2837945 C16.6482213,10.2571542 15.8158103,9.43399209 14.798419,9.43399209 L14.798419,9.43399209 Z M5.54940711,9.43399209 C4.52778947,9.43399209 3.69960474,10.2621768 3.69960474,11.2837945 C3.69960474,12.3054121 4.52778947,13.1335968 5.54940711,13.1335968 C6.57102475,13.1335968 7.39920949,12.3054121 7.39920949,11.2837945 C7.39920949,10.2571542 6.56679842,9.43399209 5.54940711,9.43399209 L5.54940711,9.43399209 Z M14.798419,7.12173913 C16.8416543,7.12173913 18.4980237,8.77810859 18.4980237,10.8213439 C18.4980237,12.8645792 16.8416543,14.5209486 14.798419,14.5209486 C12.7551837,14.5209486 11.0988142,12.8645792 11.0988142,10.8213439 C11.0988142,8.77810859 12.7551837,7.12173913 14.798419,7.12173913 L14.798419,7.12173913 Z M5.54940711,7.12173913 C7.59264239,7.12173913 9.24901186,8.77810859 9.24901186,10.8213439 C9.24901186,12.8645792 7.59264239,14.5209486 5.54940711,14.5209486 C3.50617183,14.5209486 1.84980237,12.8645792 1.84980237,10.8213439 C1.84980237,8.77810859 3.50617183,7.12173913 5.54940711,7.12173913 L5.54940711,7.12173913 Z M1.14687747,0 C2.77470356,3.42213439 1.60007905,5.97486166 0.508695652,8.50909091 C0.175731225,9.24901186 0,10.0166798 0,10.8213439 C8.21477274e-16,13.8861968 2.48455419,16.370751 5.54940711,16.370751 C5.74363636,16.361502 5.93786561,16.352253 6.13209486,16.3245059 L8.86980237,19.0622134 L10.173913,20.3478261 L11.4780237,19.0622134 L14.2157312,16.3245059 C14.4099605,16.352253 14.6041897,16.361502 14.798419,16.370751 C17.8632719,16.370751 20.3478261,13.8861968 20.3478261,10.8213439 C20.3478261,10.0166798 20.1720949,9.24901186 19.8391304,8.50909091 C18.747747,5.97486166 17.5731225,3.42213439 19.2009486,0 C16.7592095,1.90529644 13.281581,3.41288538 10.173913,3.42213439 C7.06624506,3.41288538 3.5886166,1.90529644 1.14687747,0 Z" transform="translate(7.826 7.826)"/>
    <rect width="36" height="36"/>
  </g>
</svg>
