<svg xmlns="http://www.w3.org/2000/svg" width="36" height="36" viewBox="0 0 36 36">
  <defs>
    <linearGradient id="ava-15-a" x1="50%" x2="50%" y1="0%" y2="99.739%">
      <stop offset="0%" stop-color="#FFF" stop-opacity=".4"/>
      <stop offset="100%" stop-color="#FFF" stop-opacity="0"/>
    </linearGradient>
  </defs>
  <g fill="none" fill-rule="evenodd">
    <circle cx="18" cy="18" r="18" fill="#71A6FF"/>
    <circle cx="18" cy="18" r="18" fill="url(#ava-15-a)"/>
    <path fill="#FFF" fill-rule="nonzero" d="M8.60869565,0 C3.85424433,4.17057693e-16 8.49561967e-16,3.78416716 0,8.45217391 L7.65217391,8.45217391 L7.65217391,15.9652174 C7.65217391,16.4838848 7.22392454,16.9043478 6.69565217,16.9043478 C6.1673798,16.9043478 5.73913043,16.4838848 5.73913043,15.9652174 L3.82608696,15.9652174 C3.82608696,17.5212196 5.11083507,18.7826087 6.69565217,18.7826087 C8.28046928,18.7826087 9.56521739,17.5212196 9.56521739,15.9652174 L9.56521739,8.45217391 L17.2173913,8.45217391 C17.2173913,3.78416716 13.363147,2.08528846e-15 8.60869565,8.34115385e-16 L8.60869565,0 Z" transform="translate(9.391 8.609)"/>
    <rect width="36" height="36"/>
  </g>
</svg>
