<?xml version="1.0" encoding="UTF-8"?>
<svg width="36px" height="36px" viewBox="0 0 36 36" version="1.1" xmlns="http://www.w3.org/2000/svg" xmlns:xlink="http://www.w3.org/1999/xlink">
    <!-- Generator: Sketch 49.3 (51167) - http://www.bohemiancoding.com/sketch -->
    <title>element/ava/operator/no-ava</title>
    <desc>Created with Sketch.</desc>
    <defs>
        <circle id="path-1" cx="18" cy="18" r="18"></circle>
        <path d="M0,23 L0,27 C6.76353751e-17,27.5522847 0.44771525,28 1,28 L23,28 C23.5522847,28 24,27.5522847 24,27 L24,23 C24,18.34 15.9942857,16 12,16 C8.00571429,16 0,18.34 0,23 Z M18,6 C18,2.6862915 15.3137085,0 12,0 C8.6862915,0 6,2.6862915 6,6 C6,9.3137085 8.6862915,12 12,12 C15.3137085,12 18,9.3137085 18,6 Z" id="path-3"></path>
    </defs>
    <g id="🔷/styleguide" stroke="none" stroke-width="1" fill="none" fill-rule="evenodd">
        <g id="element/ava/operator/no-ava">
            <g id="element/ava/operator/no-ava-onlight">
                <mask id="mask-2" fill="white">
                    <use xlink:href="#path-1"></use>
                </mask>
                <use id="Mask" fill="#191D2E" opacity="0.1" xlink:href="#path-1"></use>
                <g id="Mask" mask="url(#mask-2)">
                    <g transform="translate(6.000000, 10.000000)">
                        <mask id="mask-4" fill="white">
                            <use xlink:href="#path-3"></use>
                        </mask>
                        <use id="Mask" stroke="none" fill="#191D2E" fill-rule="nonzero" opacity="0.200000003" xlink:href="#path-3"></use>
                    </g>
                </g>
            </g>
        </g>
    </g>
</svg>