<svg xmlns="http://www.w3.org/2000/svg" width="24" height="24" viewBox="0 0 24 24">
  <g fill="none" fill-rule="evenodd">
    <rect width="24" height="24"/>
    <g fill="#9DA0AA" transform="translate(3 11)">
      <path fill-rule="nonzero" d="M4 6C5.1045695 6 6 5.1045695 6 4 6 2.8954305 5.1045695 2 4 2 2.8954305 2 2 2.8954305 2 4 2 5.1045695 2.8954305 6 4 6zM4 8C1.790861 8 0 6.209139 0 4 0 1.790861 1.790861 0 4 0 6.209139 0 8 1.790861 8 4 8 6.209139 6.209139 8 4 8zM14 6C15.1045695 6 16 5.1045695 16 4 16 2.8954305 15.1045695 2 14 2 12.8954305 2 12 2.8954305 12 4 12 5.1045695 12.8954305 6 14 6zM14 8C11.790861 8 10 6.209139 10 4 10 1.790861 11.790861 0 14 0 16.209139 0 18 1.790861 18 4 18 6.209139 16.209139 8 14 8z"/>
      <path d="M0.305598323,3.31936769 L0,3.25679005 L2.35642873,-3.98473864 C2.87885433,-5.00271484 3.31026752,-6.06592835 5.7224077,-6.00770665 C7.23630988,-5.97116567 7.91184506,-4.53616457 7.99186133,-3.00898204 L10.0356164,-3.00898204 C10.2403433,-4.95535976 11.2944317,-5.98379383 12.3303035,-5.99920314 C14.7103322,-6.03448539 15.1352566,-4.89210355 15.6505904,-3.77070035 L17.4619196,2.75877617 C16.7695786,1.45201817 15.4784611,0.573267539 14,0.573267539 C11.790861,0.573267539 10,2.53523562 10,4.9554459 C10,5.12737693 10.0090378,5.29699538 10.0266214,5.46376214 L10,5.46631737 L10,1.99101796 L8,1.99101796 L8,4.89495696 L7.99864101,4.89467868 C7.94281244,2.51608884 6.17393231,0.606766679 4,0.606766679 C2.33514337,0.606766679 0.907846355,1.7265677 0.305598323,3.31936769 Z M17.9915264,4.66790194 L18,4.69844769 L17.9932696,4.6990937 C17.9927216,4.68868665 17.9921405,4.67828933 17.9915264,4.66790187 Z"/>
    </g>
  </g>
</svg>
