<svg xmlns="http://www.w3.org/2000/svg" width="24" height="24" viewBox="0 0 24 24">
  <g fill="none" fill-rule="evenodd">
    <rect width="24" height="24"/>
    <path fill="#0FC198" d="M3.7561112,0.00892746479 L17.7561112,0.00892746479 C18.8606807,0.00892746479 19.7561112,0.904357965 19.7561112,2.00892746 L19.7561112,13.0089504 C19.7561112,14.1135199 18.8606807,15.0089504 17.7561112,15.0089504 L6.7561112,15.0089504 L1.7561112,19.0089275 L1.7561112,15.0089504 L1.7561112,2.00892746 C1.7561112,0.904357965 2.6515417,0.00892746479 3.7561112,0.00892746479 Z M6.75609756,9.00898204 C6.20381281,9.00898204 5.75609756,9.45669729 5.75609756,10.008982 C5.75609756,10.5612668 6.20381281,11.008982 6.75609756,11.008982 L11.7560976,11.008982 C12.3083823,11.008982 12.7560976,10.5612668 12.7560976,10.008982 C12.7560976,9.45669729 12.3083823,9.00898204 11.7560976,9.00898204 L6.75609756,9.00898204 Z M6.75609756,5.00898204 C6.20381281,5.00898204 5.75609756,5.45669729 5.75609756,6.00898204 C5.75609756,6.56126679 6.20381281,7.00898204 6.75609756,7.00898204 L14.7560976,7.00898204 C15.3083823,7.00898204 15.7560976,6.56126679 15.7560976,6.00898204 C15.7560976,5.45669729 15.3083823,5.00898204 14.7560976,5.00898204 L6.75609756,5.00898204 Z" transform="translate(1.244 2.991)"/>
  </g>
</svg>
