<svg xmlns="http://www.w3.org/2000/svg" width="24" height="24" viewBox="0 0 24 24">
  <g fill="none" fill-rule="evenodd">
    <rect width="24" height="24"/>
    <g fill="#259EFF" fill-rule="nonzero" transform="translate(2 5)">
      <path d="M0 11.5L0 13C6.76353751e-17 13.5522847.44771525 14 1 14L11 14C11.5522847 14 12 13.5522847 12 13L12 11.5C12 9.17 7.99714286 8 6 8 4.00285714 8 0 9.17 0 11.5zM9 3C9 1.34314575 7.65685425 0 6 0 4.34314575 0 3 1.34314575 3 3 3 4.65685425 4.34314575 6 6 6 7.65685425 6 9 4.65685425 9 3zM13.2637047 8.0438187C13.5285936 8.01461088 13.7768204 8 14 8 15.9971429 8 20 9.17 20 11.5L20 13C20 13.5522847 19.5522847 14 19 14L15 14 15 12C15 10.4113894 14.3022105 9.09239821 13.2637047 8.0438187zM17 3C17 4.65685425 15.6568542 6 14 6 12.3431458 6 11 4.65685425 11 3 11 1.34314575 12.3431458 0 14 0 15.6568542 0 17 1.34314575 17 3z"/>
    </g>
  </g>
</svg>
