<svg xmlns="http://www.w3.org/2000/svg" width="36" height="36" viewBox="0 0 36 36">
  <defs>
    <linearGradient id="ava-9-a" x1="50%" x2="50%" y1="0%" y2="99.739%">
      <stop offset="0%" stop-color="#FFF" stop-opacity=".4"/>
      <stop offset="100%" stop-color="#FFF" stop-opacity="0"/>
    </linearGradient>
  </defs>
  <g fill="none" fill-rule="evenodd">
    <circle cx="18" cy="18" r="18" fill="#4DB3A1"/>
    <circle cx="18" cy="18" r="18" fill="url(#ava-9-a)"/>
    <path fill="#FFF" fill-rule="nonzero" d="M3.74956522,1.91304348 L1.91304348,1.91304348 L10.5217391,10.5217391 L11.4782609,9.6226087 L3.74956522,1.91304348 Z M16.2226087,15.4191304 L15.4191304,16.2226087 C15.046087,16.5956522 14.4434783,16.5956522 14.0704348,16.2226087 L11.086087,13.2382609 L8.5226087,15.7826087 L7.17391304,14.433913 L8.53217391,13.0756522 L0,4.54347826 L0,0 L4.54347826,0 L13.0756522,8.53217391 L14.433913,7.17391304 L15.7826087,8.5226087 L13.2286957,11.0765217 L16.2130435,14.0608696 C16.5956522,14.4434783 16.5956522,15.046087 16.2226087,15.4191304 Z" transform="translate(9.391 9.391)"/>
    <rect width="36" height="36"/>
  </g>
</svg>
