<svg xmlns="http://www.w3.org/2000/svg" width="36" height="36" viewBox="0 0 36 36">
  <defs>
    <linearGradient id="ava-3-a" x1="50%" x2="50%" y1="0%" y2="99.739%">
      <stop offset="0%" stop-color="#FFF" stop-opacity=".4"/>
      <stop offset="100%" stop-color="#FFF" stop-opacity="0"/>
    </linearGradient>
  </defs>
  <g fill="none" fill-rule="evenodd">
    <circle cx="18" cy="18" r="18" fill="#FFA727"/>
    <circle cx="18" cy="18" r="18" fill="url(#ava-3-a)"/>
    <path fill="#FFF" fill-rule="nonzero" d="M10.173913,0 C11.1955307,0 12.0237154,0.840926035 12.0237154,1.87826087 C12.0237154,2.57321739 11.6537549,3.18365217 11.0988142,3.50295652 L11.0988142,4.69565217 L12.0237154,4.69565217 C15.5993772,4.69565217 18.4980237,7.6388933 18.4980237,11.2695652 L19.4229249,11.2695652 C19.9337337,11.2695652 20.3478261,11.6900282 20.3478261,12.2086957 L20.3478261,15.026087 C20.3478261,15.5447544 19.9337337,15.9652174 19.4229249,15.9652174 L18.4980237,15.9652174 L18.4980237,16.9043478 C18.4980237,17.9416827 17.669839,18.7826087 16.6482213,18.7826087 L3.69960474,18.7826087 C2.6779871,18.7826087 1.84980237,17.9416827 1.84980237,16.9043478 L1.84980237,15.9652174 L0.924901186,15.9652174 C0.414092366,15.9652174 0,15.5447544 0,15.026087 L0,12.2086957 C-1.02684659e-16,11.6900282 0.414092366,11.2695652 0.924901186,11.2695652 L1.84980237,11.2695652 C1.84980237,7.6388933 4.74844893,4.69565217 8.32411067,4.69565217 L9.24901186,4.69565217 L9.24901186,3.50295652 C8.69407115,3.18365217 8.32411067,2.57321739 8.32411067,1.87826087 C8.32411067,0.840926035 9.1522954,0 10.173913,0 L10.173913,0 Z M6.01185771,10.3304348 C4.73483566,10.3304348 3.69960474,11.3815923 3.69960474,12.6782609 C3.69960474,13.9749294 4.73483566,15.026087 6.01185771,15.026087 C7.28887976,15.026087 8.32411067,13.9749294 8.32411067,12.6782609 C8.32411067,11.3815923 7.28887976,10.3304348 6.01185771,10.3304348 L6.01185771,10.3304348 Z M14.3359684,10.3304348 C13.0589463,10.3304348 12.0237154,11.3815923 12.0237154,12.6782609 C12.0237154,13.9749294 13.0589463,15.026087 14.3359684,15.026087 C15.6129904,15.026087 16.6482213,13.9749294 16.6482213,12.6782609 C16.6482213,11.3815923 15.6129904,10.3304348 14.3359684,10.3304348 Z" transform="translate(7.826 8.609)"/>
    <rect width="36" height="36"/>
  </g>
</svg>
