<?xml version="1.0" encoding="UTF-8"?>
<svg width="24px" height="24px" viewBox="0 0 24 24" version="1.1" xmlns="http://www.w3.org/2000/svg" xmlns:xlink="http://www.w3.org/1999/xlink">
    <!-- Generator: Sketch 49.3 (51167) - http://www.bohemiancoding.com/sketch -->
    <title>icon__nav__reminder__--color</title>
    <desc>Created with Sketch.</desc>
    <defs>
        <path d="M7.79997715,19.5 C6.72261317,19.5 5.8499543,18.6273971 5.85,17.55 L9.75,17.55 C9.75,18.6273971 8.87734112,19.5 7.79997715,19.5 Z M14.2187798,13.2954545 L16.25,15.2651669 L16.25,16.25 L0,16.25 L0,15.2651669 L2.03126785,13.2954545 L2.03126785,8.3712429 C2.03126785,5.34283381 3.69181635,2.81669744 6.60158482,2.14698509 L6.60158482,1.47727273 C6.60158482,0.659833097 7.28203836,0 8.1250238,0 C8.96800925,0 9.64846279,0.659833097 9.64846279,1.47727273 L9.64846279,2.14693892 C12.5582313,2.81665128 14.2187798,5.34278764 14.2187798,8.37119673 L14.2187798,13.2954545 Z" id="path-1"></path>
    </defs>
    <g id="🔷/styleguide" stroke="none" stroke-width="1" fill="none" fill-rule="evenodd">
        <g id="styleguide" transform="translate(-112.000000, -2387.000000)">
            <g id="Group-3" transform="translate(112.000000, 1947.000000)">
                <g id="icon/nav/reminder/--color" transform="translate(0.000000, 440.000000)">
                    <g id="bg/spec">
                        <rect id="bg" x="0" y="0" width="24" height="24"></rect>
                    </g>
                    <g id="notification" stroke-width="1" fill-rule="evenodd" transform="translate(4.000000, 2.000000)">
                        <g id="colors/grayscale/40">
                            <mask id="mask-2" fill="white">
                                <use xlink:href="#path-1"></use>
                            </mask>
                            <use id="Mask" fill="#34AC4D" fill-rule="nonzero" xlink:href="#path-1"></use>
                        </g>
                    </g>
                </g>
            </g>
        </g>
    </g>
</svg>