<?xml version="1.0" encoding="UTF-8"?>
<svg width="24px" height="24px" viewBox="0 0 24 24" version="1.1" xmlns="http://www.w3.org/2000/svg" xmlns:xlink="http://www.w3.org/1999/xlink">
    <!-- Generator: Sketch 49.3 (51167) - http://www.bohemiancoding.com/sketch -->
    <title>icon__nav__contacts__--dark</title>
    <desc>Created with Sketch.</desc>
    <defs></defs>
    <g id="🔷/styleguide" stroke="none" stroke-width="1" fill="none" fill-rule="evenodd">
        <g id="styleguide" transform="translate(-240.000000, -2195.000000)">
            <g id="Group-3" transform="translate(112.000000, 1947.000000)">
                <g id="icon/nav/contacts/--dark" transform="translate(128.000000, 248.000000)">
                    <g id="icon/nav/contacts/--color">
                        <g id="bg/spec">
                            <rect id="bg" x="0" y="0" width="24" height="24"></rect>
                        </g>
                        <g id="icon/nav/contacts" transform="translate(3.000000, 2.000000)" fill="#000000">
                            <path d="M2,0 L16,0 C17.1045695,-2.02906125e-16 18,0.8954305 18,2 L18,12 C18,13.1045695 17.1045695,14 16,14 L2,14 C0.8954305,14 1.3527075e-16,13.1045695 0,12 L0,2 C-1.3527075e-16,0.8954305 0.8954305,2.02906125e-16 2,0 Z M9,7 C10.1045695,7 11,6.1045695 11,5 C11,3.8954305 10.1045695,3 9,3 C7.8954305,3 7,3.8954305 7,5 C7,6.1045695 7.8954305,7 9,7 Z M5.74104778,10.9812012 L12.2247869,10.9812012 C11.8272191,8.32706706 10.7487106,7 8.98926152,7 C7.22981241,7 6.1470745,8.32706706 5.74104778,10.9812012 Z" id="Rectangle-39"></path>
                            <path d="M2,15 L2,15 C2,16.1045695 2.8954305,17 4,17 L14,17 C15.1045695,17 16,16.1045695 16,15" id="Path-14"></path>
                            <path d="M4,18 L4,18 C4,19.1045695 4.8954305,20 6,20 L12,20 C13.1045695,20 14,19.1045695 14,18" id="Path-14"></path>
                        </g>
                    </g>
                </g>
            </g>
        </g>
    </g>
</svg>