<?xml version="1.0" encoding="UTF-8"?>
<svg width="24px" height="24px" viewBox="0 0 24 24" version="1.1" xmlns="http://www.w3.org/2000/svg" xmlns:xlink="http://www.w3.org/1999/xlink">
    <!-- Generator: Sketch 49.3 (51167) - http://www.bohemiancoding.com/sketch -->
    <title>icon__nav__call__--solid-color</title>
    <desc>Created with Sketch.</desc>
    <defs></defs>
    <g id="🔷/styleguide" stroke="none" stroke-width="1" fill="none" fill-rule="evenodd">
        <g id="styleguide" transform="translate(-112.000000, -2259.000000)">
            <g id="Group-3" transform="translate(112.000000, 1947.000000)">
                <g id="icon/nav/call/--solid-color" transform="translate(0.000000, 312.000000)">
                    <g id="icon/nav/call/--color">
                        <g id="bg/spec">
                            <rect id="bg" x="0" y="0" width="24" height="24"></rect>
                        </g>
                    </g>
                    <g id="icon" transform="translate(4.000000, 3.000000)" fill="#0AB534">
                        <path d="M10.7347412,11.7590942 C10.297972,12.138325 9.55138462,13.8092308 6.41161538,10.1973846 C3.2725,6.59011538 5.14053846,6.02846154 5.57796154,5.6525 L5.95833716,4.85209602 C6.48609858,3.74155604 6.29190485,2.42234405 5.46651246,1.51099418 L5.25615186,1.27872633 C4.58164635,0.533976904 3.48116258,0.355931462 2.60623077,0.85 C2.16553846,1.17103846 0.933692308,2.21457692 0.634884615,4.19703846 C0.275269231,6.57573077 1.40969231,9.29965385 4.00873077,12.2883846 C6.6045,15.2784231 9.146,16.7803077 11.5534615,16.7541538 C13.5542308,16.7325769 14.7625385,15.6589615 15.1404615,15.2686154 L15.1404615,15.2686154 C15.7196731,14.5615916 15.6410334,13.5242001 14.9618609,12.9125683 L14.0281608,12.0717206 C13.1191933,11.2531459 11.7814921,11.1261652 10.7347412,11.7590942 Z" id="Shape" fill-rule="nonzero"></path>
                    </g>
                </g>
            </g>
        </g>
    </g>
</svg>