<?xml version="1.0" encoding="UTF-8"?>
<svg width="24px" height="24px" viewBox="0 0 24 24" version="1.1" xmlns="http://www.w3.org/2000/svg" xmlns:xlink="http://www.w3.org/1999/xlink">
    <!-- Generator: Sketch 49.3 (51167) - http://www.bohemiancoding.com/sketch -->
    <title>icon__nav__visitors__--solid-grey</title>
    <desc>Created with Sketch.</desc>
    <defs></defs>
    <g id="🔷/styleguide" stroke="none" stroke-width="1" fill="none" fill-rule="evenodd">
        <g id="styleguide" transform="translate(-240.000000, -2075.000000)">
            <g id="Group-3" transform="translate(112.000000, 1947.000000)">
                <g id="icon/nav/visitors/--dark" transform="translate(128.000000, 128.000000)">
                    <g id="icon/nav/visitors/--solid-black">
                        <g id="bg/spec">
                            <rect id="bg" x="0" y="0" width="24" height="24"></rect>
                        </g>
                        <g id="icon/nav/visitors" transform="translate(2.000000, 3.000000)">
                            <g id="iconVisitors-Copy-2">
                                <g id="Group" transform="translate(0.243902, 0.991018)">
                                    <path d="M18.2180171,9.76775821 C17.5256762,8.46100021 16.2345586,7.58224958 14.7560976,7.58224958 C12.5469586,7.58224958 10.7560976,9.54421766 10.7560976,11.9644279 C10.7560976,12.136359 10.7651354,12.3059774 10.782719,12.4727442 L10.7560976,12.4752994 L10.7560976,4.70061895 C10.7560976,2.30102622 11.9325505,1.02694323 13.0864011,1.00977889 C15.4664298,0.974496647 15.8913542,2.11687848 16.406688,3.23828169 L18.2180171,9.76775821 Z M18.7476239,11.676884 L18.7560976,11.7074297 L18.7493671,11.7080757 C18.7488192,11.6976687 18.7482381,11.6872714 18.7476239,11.6768839 Z" id="Combined-Shape" fill="#282E40"></path>
                                    <rect id="Rectangle-6" fill="#2D3244" x="8" y="4" width="3" height="5"></rect>
                                    <path d="M8.75473857,11.9036607 C8.69891,9.52507088 6.93002987,7.61574872 4.75609756,7.61574872 C3.09124093,7.61574872 1.66394392,8.73554974 1.06169588,10.3283497 L0.756097561,10.2657721 L3.11252629,3.02424339 C3.63495189,2.00626719 4.06636508,0.94305369 6.47850526,1.00127539 C8.0955471,1.04030584 8.75609756,2.6748369 8.75609756,4.3130038 L8.75609756,11.903939 L8.75473857,11.9036607 Z" id="Combined-Shape" fill="#282E40"></path>
                                    <circle id="Oval" stroke="#282E40" stroke-width="2" cx="4.75609756" cy="11.008982" r="3"></circle>
                                    <circle id="Oval" stroke="#282E40" stroke-width="2" cx="14.7560976" cy="11.008982" r="3"></circle>
                                </g>
                            </g>
                        </g>
                    </g>
                </g>
            </g>
        </g>
    </g>
</svg>