<?xml version="1.0" encoding="UTF-8"?>
<svg width="24px" height="24px" viewBox="0 0 24 24" version="1.1" xmlns="http://www.w3.org/2000/svg" xmlns:xlink="http://www.w3.org/1999/xlink">
    <!-- Generator: Sketch 49.3 (51167) - http://www.bohemiancoding.com/sketch -->
    <title>icon__nav__my__--solid-grey</title>
    <desc>Created with Sketch.</desc>
    <defs>
        <path d="M2.7561112,0.00892746479 L16.7561112,0.00892746479 C17.8606807,0.00892746479 18.7561112,0.904357965 18.7561112,2.00892746 L18.7561112,13.0089504 C18.7561112,14.1135199 17.8606807,15.0089504 16.7561112,15.0089504 L5.7561112,15.0089504 L0.756111204,19.0089275 L0.756111204,15.0089504 L0.756111204,2.00892746 C0.756111204,0.904357965 1.6515417,0.00892746479 2.7561112,0.00892746479 Z M5.75609756,9.00898204 C5.20381281,9.00898204 4.75609756,9.45669729 4.75609756,10.008982 C4.75609756,10.5612668 5.20381281,11.008982 5.75609756,11.008982 L10.7560976,11.008982 C11.3083823,11.008982 11.7560976,10.5612668 11.7560976,10.008982 C11.7560976,9.45669729 11.3083823,9.00898204 10.7560976,9.00898204 L5.75609756,9.00898204 Z M5.75609756,5.00898204 C5.20381281,5.00898204 4.75609756,5.45669729 4.75609756,6.00898204 C4.75609756,6.56126679 5.20381281,7.00898204 5.75609756,7.00898204 L13.7560976,7.00898204 C14.3083823,7.00898204 14.7560976,6.56126679 14.7560976,6.00898204 C14.7560976,5.45669729 14.3083823,5.00898204 13.7560976,5.00898204 L5.75609756,5.00898204 Z" id="path-1"></path>
    </defs>
    <g id="🔷/styleguide" stroke="none" stroke-width="1" fill="none" fill-rule="evenodd">
        <g id="styleguide" transform="translate(-176.000000, -2011.000000)">
            <g id="Group-3" transform="translate(112.000000, 1947.000000)">
                <g id="icon/nav/my/--solid-grey" transform="translate(64.000000, 64.000000)">
                    <g id="bg/spec">
                        <rect id="bg" x="0" y="0" width="24" height="24"></rect>
                    </g>
                    <g id="colors/n90" stroke-width="1" fill-rule="evenodd" transform="translate(2.243902, 2.991018)">
                        <mask id="mask-2" fill="white">
                            <use xlink:href="#path-1"></use>
                        </mask>
                        <use id="Mask" fill="#9DA0AA" xlink:href="#path-1"></use>
                    </g>
                </g>
            </g>
        </g>
    </g>
</svg>