<?xml version="1.0" encoding="UTF-8"?>
<svg width="24px" height="24px" viewBox="0 0 24 24" version="1.1" xmlns="http://www.w3.org/2000/svg" xmlns:xlink="http://www.w3.org/1999/xlink">
    <!-- Generator: Sketch 49.3 (51167) - http://www.bohemiancoding.com/sketch -->
    <title>icon__nav__team__--solid-grey</title>
    <desc>Created with Sketch.</desc>
    <defs></defs>
    <g id="🔷/styleguide" stroke="none" stroke-width="1" fill="none" fill-rule="evenodd">
        <g id="styleguide" transform="translate(-176.000000, -2131.000000)">
            <g id="Group-3" transform="translate(112.000000, 1947.000000)">
                <g id="icon/nav/team/--solid-grey" transform="translate(64.000000, 184.000000)">
                    <g id="bg/spec">
                        <rect id="bg" x="0" y="0" width="24" height="24"></rect>
                    </g>
                    <g id="icon/nav/team" stroke-width="1" fill-rule="evenodd" transform="translate(2.000000, 5.000000)" fill="#A0A2AC">
                        <path d="M0,11.5 L0,13 C6.76353751e-17,13.5522847 0.44771525,14 1,14 L11,14 C11.5522847,14 12,13.5522847 12,13 L12,11.5 C12,9.17 7.99714286,8 6,8 C4.00285714,8 0,9.17 0,11.5 Z M9,3 C9,1.34314575 7.65685425,0 6,0 C4.34314575,0 3,1.34314575 3,3 C3,4.65685425 4.34314575,6 6,6 C7.65685425,6 9,4.65685425 9,3 Z" id="Shape" fill-rule="nonzero"></path>
                        <path d="M13.2637047,8.0438187 C13.5285936,8.01461088 13.7768204,8 14,8 C15.9971429,8 20,9.17 20,11.5 L20,13 C20,13.5522847 19.5522847,14 19,14 L15,14 L15,12 C15,10.4113894 14.3022105,9.09239821 13.2637047,8.0438187 Z M17,3 C17,4.65685425 15.6568542,6 14,6 C12.3431458,6 11,4.65685425 11,3 C11,1.34314575 12.3431458,0 14,0 C15.6568542,0 17,1.34314575 17,3 Z" id="Combined-Shape" fill-rule="nonzero"></path>
                    </g>
                </g>
            </g>
        </g>
    </g>
</svg>