<?xml version="1.0" encoding="UTF-8"?>
<svg width="24px" height="24px" viewBox="0 0 24 24" version="1.1" xmlns="http://www.w3.org/2000/svg" xmlns:xlink="http://www.w3.org/1999/xlink">
    <!-- Generator: Sketch 49.3 (51167) - http://www.bohemiancoding.com/sketch -->
    <title>icon__nav__my__--dark</title>
    <desc>Created with Sketch.</desc>
    <defs></defs>
    <g id="🔷/styleguide" stroke="none" stroke-width="1" fill="none" fill-rule="evenodd">
        <g id="styleguide" transform="translate(-240.000000, -2011.000000)">
            <g id="Group-3" transform="translate(112.000000, 1947.000000)">
                <g id="icon/nav/my/--dark" transform="translate(128.000000, 64.000000)">
                    <g id="icon/nav/my/--color">
                        <g id="bg/spec">
                            <rect id="bg" x="0" y="0" width="24" height="24"></rect>
                        </g>
                        <g id="icon/nav/my" transform="translate(1.000000, 2.000000)" fill="#000000">
                            <g id="iconMy-Copy-2">
                                <g id="Group" transform="translate(0.243902, 0.991018)">
                                    <path d="M3.7561112,0.00892746479 L17.7561112,0.00892746479 C18.8606807,0.00892746479 19.7561112,0.904357965 19.7561112,2.00892746 L19.7561112,13.0089504 C19.7561112,14.1135199 18.8606807,15.0089504 17.7561112,15.0089504 L6.7561112,15.0089504 L1.7561112,19.0089275 L1.7561112,15.0089504 L1.7561112,2.00892746 C1.7561112,0.904357965 2.6515417,0.00892746479 3.7561112,0.00892746479 Z M6.75609756,9.00898204 C6.20381281,9.00898204 5.75609756,9.45669729 5.75609756,10.008982 C5.75609756,10.5612668 6.20381281,11.008982 6.75609756,11.008982 L11.7560976,11.008982 C12.3083823,11.008982 12.7560976,10.5612668 12.7560976,10.008982 C12.7560976,9.45669729 12.3083823,9.00898204 11.7560976,9.00898204 L6.75609756,9.00898204 Z M6.75609756,5.00898204 C6.20381281,5.00898204 5.75609756,5.45669729 5.75609756,6.00898204 C5.75609756,6.56126679 6.20381281,7.00898204 6.75609756,7.00898204 L14.7560976,7.00898204 C15.3083823,7.00898204 15.7560976,6.56126679 15.7560976,6.00898204 C15.7560976,5.45669729 15.3083823,5.00898204 14.7560976,5.00898204 L6.75609756,5.00898204 Z" id="Combined-Shape"></path>
                                </g>
                            </g>
                        </g>
                    </g>
                </g>
            </g>
        </g>
    </g>
</svg>