<?xml version="1.0" encoding="UTF-8"?>
<svg width="24px" height="24px" viewBox="0 0 24 24" version="1.1" xmlns="http://www.w3.org/2000/svg" xmlns:xlink="http://www.w3.org/1999/xlink">
    <!-- Generator: Sketch 49.3 (51167) - http://www.bohemiancoding.com/sketch -->
    <title>icon__nav__inbox__--solid-color</title>
    <desc>Created with Sketch.</desc>
    <defs></defs>
    <g id="🔷/styleguide" stroke="none" stroke-width="1" fill="none" fill-rule="evenodd">
        <g id="styleguide" transform="translate(-112.000000, -1947.000000)">
            <g id="Group-3" transform="translate(112.000000, 1947.000000)">
                <g id="icon/nav/inbox/--solid-color">
                    <g id="icon/nav/inbox/--color">
                        <g id="bg/spec">
                            <rect id="bg" x="0" y="0" width="24" height="24"></rect>
                        </g>
                        <g id="icon/nav/inbox" transform="translate(3.000000, 4.000000)">
                            <g id="Group-5">
                                <g id="Group-4" transform="translate(6.000000, 2.995509)">
                                    <rect id="Rectangle-5" fill="#0AB534" x="2" y="0" width="2" height="6" rx="1"></rect>
                                    <polyline id="Path-5" stroke="#0AB534" points="0.5 3.00449102 2.99560547 6.00449102 5.5 3.00449102"></polyline>
                                </g>
                                <path d="M4.5900163,9 C5.0069596,11.2822403 6.82293788,13 9,13 C11.1770621,13 12.9930404,11.2822403 13.4099837,9 L18,9 L18,15 C18,16.1045695 17.1045695,17 16,17 L2,17 C0.8954305,17 1.3527075e-16,16.1045695 0,15 L0,9 L4.5900163,9 Z" id="Combined-Shape" fill="#0AB534"></path>
                                <path d="M17,9 L17,2 C17,0.8954305 16.1045695,-2.02906125e-16 15,0 L3,0 C1.8954305,2.02906125e-16 1,0.8954305 1,2 L1,9" id="Path-6" stroke="#0AB534" stroke-width="2" transform="translate(9.000000, 4.500000) scale(-1, 1) translate(-9.000000, -4.500000) "></path>
                            </g>
                        </g>
                    </g>
                </g>
            </g>
        </g>
    </g>
</svg>