<svg xmlns="http://www.w3.org/2000/svg" width="36" height="36" viewBox="0 0 36 36">
  <defs>
    <linearGradient id="ava-5-a" x1="50%" x2="50%" y1="0%" y2="99.739%">
      <stop offset="0%" stop-color="#FFF" stop-opacity=".4"/>
      <stop offset="100%" stop-color="#FFF" stop-opacity="0"/>
    </linearGradient>
  </defs>
  <g fill="none" fill-rule="evenodd">
    <circle cx="18" cy="18" r="18" fill="#FC4946"/>
    <circle cx="18" cy="18" r="18" fill="url(#ava-5-a)"/>
    <path fill="#FFF" fill-rule="nonzero" d="M9.7826087,8.60869565 L5.86956522,8.60869565 L5.86956522,6.69565217 L9.7826087,6.69565217 L9.7826087,8.60869565 Z M9.7826087,12.4347826 L5.86956522,12.4347826 L5.86956522,10.5217391 L9.7826087,10.5217391 L9.7826087,12.4347826 Z M15.6521739,4.7826087 L12.9032609,4.7826087 C12.4630435,4.03652174 11.8565217,3.39565217 11.1228261,2.90782609 L12.7173913,1.34869565 L11.3380435,0 L9.21521739,2.07565217 C8.76521739,1.97043478 8.31521739,1.91304348 7.82608696,1.91304348 C7.33695652,1.91304348 6.88695652,1.97043478 6.44673913,2.07565217 L4.31413043,0 L2.93478261,1.34869565 L4.51956522,2.90782609 C3.79565217,3.39565217 3.18913043,4.03652174 2.74891304,4.7826087 L0,4.7826087 L0,6.69565217 L2.04456522,6.69565217 C1.99565217,7.01130435 1.95652174,7.32695652 1.95652174,7.65217391 L1.95652174,8.60869565 L0,8.60869565 L0,10.5217391 L1.95652174,10.5217391 L1.95652174,11.4782609 C1.95652174,11.8034783 1.99565217,12.1191304 2.04456522,12.4347826 L0,12.4347826 L0,14.3478261 L2.74891304,14.3478261 C3.76630435,16.06 5.65434783,17.2173913 7.82608696,17.2173913 C9.99782609,17.2173913 11.8858696,16.06 12.9032609,14.3478261 L15.6521739,14.3478261 L15.6521739,12.4347826 L13.6076087,12.4347826 C13.6565217,12.1191304 13.6956522,11.8034783 13.6956522,11.4782609 L13.6956522,10.5217391 L15.6521739,10.5217391 L15.6521739,8.60869565 L13.6956522,8.60869565 L13.6956522,7.65217391 C13.6956522,7.32695652 13.6565217,7.01130435 13.6076087,6.69565217 L15.6521739,6.69565217 L15.6521739,4.7826087 Z" transform="translate(10.174 9.391)"/>
    <rect width="36" height="36"/>
  </g>
</svg>
