<svg xmlns="http://www.w3.org/2000/svg" width="24" height="24" viewBox="0 0 24 24">
  <g fill="none" fill-rule="evenodd">
    <rect width="24" height="24"/>
    <g fill="#896EE6" transform="translate(3 2)">
      <path d="M2 0L16 0C17.1045695-2.02906125e-16 18 .8954305 18 2L18 12C18 13.1045695 17.1045695 14 16 14L2 14C.8954305 14 1.3527075e-16 13.1045695 0 12L0 2C-1.3527075e-16.8954305.8954305 2.02906125e-16 2 0zM9 7C10.1045695 7 11 6.1045695 11 5 11 3.8954305 10.1045695 3 9 3 7.8954305 3 7 3.8954305 7 5 7 6.1045695 7.8954305 7 9 7zM5.74104778 10.9812012L12.2247869 10.9812012C11.8272191 8.32706706 10.7487106 7 8.98926152 7 7.22981241 7 6.1470745 8.32706706 5.74104778 10.9812012zM2 15L2 15C2 16.1045695 2.8954305 17 4 17L14 17C15.1045695 17 16 16.1045695 16 15M4 18L4 18C4 19.1045695 4.8954305 20 6 20L12 20C13.1045695 20 14 19.1045695 14 18"/>
    </g>
  </g>
</svg>
