<?xml version="1.0" encoding="UTF-8"?>
<svg width="279px" height="172px" viewBox="0 0 279 172" version="1.1" xmlns="http://www.w3.org/2000/svg" xmlns:xlink="http://www.w3.org/1999/xlink">
    <!-- Generator: Sketch 49.3 (51167) - http://www.bohemiancoding.com/sketch -->
    <title>visual/empty/archive</title>
    <desc>Created with Sketch.</desc>
    <defs>
        <path d="M21,0 L49,0 C50.1045695,3.72131305e-15 51,0.8954305 51,2 L51,7 L112.398,7 C115.676,7 118.18,9.648 117.992,12.894 L114.689,69.845 C114.523,72.695 111.927,74.994 108.872,75 L10.466,75 C7.419,75 4.802,72.699 4.62,69.845 L0.991,12.894 C0.784,9.648 3.273,7 6.551,7 L19,7 L19,2 C19,0.8954305 19.8954305,2.16501571e-15 21,0 Z" id="path-1"></path>
        <path d="M6.348,0 L121.44,0 C125.005,0 127.727,2.882 127.522,6.414 L123.931,68.39 C123.751,71.496 120.919,74 117.606,74 L10.606,74 C7.292,74 4.446,71.496 4.249,68.39 L0.303,6.414 C0.078,2.882 2.784,0 6.348,0 L6.348,0 Z" id="path-2"></path>
    </defs>
    <g id="🔷/styleguide" stroke="none" stroke-width="1" fill="none" fill-rule="evenodd">
        <g id="visuals" transform="translate(-88.000000, -119.000000)">
            <g id="visual/empty/archive" transform="translate(82.000000, 74.000000)">
                <g>
                    <path d="M267.465533,194.587264 C267.465533,168.300262 245.41859,161.991382 267.465533,138.858821 C289.512475,115.72626 264.358429,77.4884712 225.08762,68.9199676 C185.816812,60.3514641 170.336514,94.0604474 135.061407,79.3397266 C99.7862986,64.6190059 83.3593499,52.3246137 52.4936305,40.7583332 C21.6279111,29.1920526 7.52256039,68.8762111 49.411751,96.2146925 C91.3009416,123.553174 39.021197,139.156746 50.5858775,176.368612 C62.1505579,213.580478 171.66242,190.033943 195.914057,203.703183 C220.165693,217.372424 267.465533,220.874265 267.465533,194.587264 Z" id="Path-2" fill="#F3F4F5" transform="translate(149.484636, 126.450833) rotate(-20.000000) translate(-149.484636, -126.450833) "></path>
                    <g id="Archive" transform="translate(90.000000, 76.000000)">
                        <g id="Group">
                            <g id="Archive">
                                <g id="Group-1">
                                    <g id="Rounded-Rectangle-50" transform="translate(4.000000, 25.000000)">
                                        <g id="Shape">
                                            <use fill="#FFFFFF" fill-rule="evenodd" xlink:href="#path-1"></use>
                                            <path stroke="#E0E1E5" stroke-width="2" d="M52,6 L112.398,6 C116.246808,6 119.211817,9.12757564 118.990322,12.9518999 L115.687308,69.9031471 C115.489733,73.2952505 112.44492,75.9929847 108.872,76 L10.466,76 C6.9020127,76 3.83835063,73.3008786 3.62202405,69.9085925 L-0.00697282373,12.9576415 C-0.250972528,9.13144326 2.69974004,6 6.551,6 L18,6 L18,2 C18,0.343145751 19.3431458,-1 21,-1 L49,-1 C50.6568542,-1 52,0.343145751 52,2 L52,6 Z"></path>
                                        </g>
                                    </g>
                                    <g id="Group-1711211220" transform="translate(27.000000, 0.000000)">
                                        <g id="Rounded-Rectangle-48" transform="translate(4.000000, 0.000000)">
                                            <path d="M7.515,0 L67.191,0 C70.952,0 74,3.062 74,6.839 L74,32.161 C74,35.938 70.952,39 67.191,39 L7.515,39 C3.754,39 0.706,35.938 0.706,32.161 L0.706,6.839 C0.706,3.062 3.754,0 7.515,0 L7.515,0 Z" id="Shape" fill="#FFFFFF"></path>
                                            <path d="M67.279,0.001 L67.367,0.002 L67.454,0.005 L67.542,0.009 L67.628,0.014 L67.715,0.02 L67.801,0.027 L67.887,0.035 L67.973,0.045 L68.058,0.055 L68.143,0.066 L68.228,0.079 L68.312,0.092 L68.396,0.107 L68.48,0.122 L68.563,0.139 L68.646,0.157 L68.729,0.175 L68.811,0.195 L68.893,0.215 L68.974,0.237 L69.055,0.259 L69.136,0.283 L69.216,0.307 L69.296,0.333 L69.375,0.359 L69.454,0.387 L69.532,0.415 L69.61,0.444 L69.688,0.474 L69.765,0.505 L69.841,0.537 L69.918,0.57 L69.993,0.604 L70.068,0.639 L70.143,0.674 L70.217,0.711 L70.291,0.748 L70.364,0.786 L70.437,0.825 L70.509,0.865 L70.58,0.906 L70.651,0.948 L70.722,0.99 L70.792,1.033 L70.861,1.077 L70.93,1.122 L70.998,1.168 L71.066,1.214 L71.133,1.262 L71.199,1.31 L71.265,1.359 L71.33,1.408 L71.395,1.459 L71.459,1.51 L71.522,1.562 L71.585,1.614 L71.647,1.668 L71.708,1.722 L71.769,1.777 L71.829,1.832 L71.889,1.888 L71.948,1.945 L72.006,2.003 L72.063,2.061 L72.12,2.121 L72.176,2.18 L72.231,2.241 L72.286,2.302 L72.34,2.363 L72.393,2.426 L72.445,2.489 L72.497,2.552 L72.548,2.617 L72.598,2.682 L72.647,2.747 L72.696,2.813 L72.744,2.88 L72.791,2.947 L72.837,3.015 L72.883,3.084 L72.927,3.153 L72.971,3.223 L73.014,3.293 L73.056,3.364 L73.098,3.435 L73.138,3.507 L73.178,3.579 L73.217,3.652 L73.255,3.726 L73.292,3.8 L73.329,3.874 L73.364,3.949 L73.399,4.025 L73.432,4.101 L73.465,4.177 L73.497,4.254 L73.528,4.331 L73.558,4.409 L73.587,4.488 L73.615,4.566 L73.642,4.646 L73.669,4.725 L73.694,4.805 L73.718,4.886 L73.742,4.967 L73.764,5.048 L73.786,5.13 L73.806,5.212 L73.826,5.295 L73.844,5.377 L73.862,5.461 L73.878,5.544 L73.894,5.628 L73.908,5.713 L73.922,5.798 L73.934,5.883 L73.945,5.968 L73.956,6.054 L73.965,6.14 L73.973,6.226 L73.98,6.313 L73.986,6.4 L73.991,6.487 L73.995,6.575 L73.998,6.663 L73.999,6.751 L74,6.839 L74,32.161 L73.999,32.249 L73.998,32.337 L73.995,32.425 L73.991,32.513 L73.986,32.6 L73.98,32.687 L73.973,32.774 L73.965,32.86 L73.956,32.946 L73.945,33.032 L73.934,33.117 L73.922,33.202 L73.908,33.287 L73.894,33.372 L73.878,33.456 L73.862,33.539 L73.844,33.622 L73.826,33.705 L73.806,33.788 L73.786,33.87 L73.764,33.952 L73.742,34.033 L73.718,34.114 L73.694,34.195 L73.669,34.275 L73.642,34.354 L73.615,34.434 L73.587,34.512 L73.558,34.591 L73.528,34.669 L73.497,34.746 L73.465,34.823 L73.432,34.899 L73.399,34.975 L73.364,35.051 L73.329,35.126 L73.292,35.2 L73.255,35.274 L73.217,35.348 L73.178,35.421 L73.138,35.493 L73.098,35.565 L73.056,35.636 L73.014,35.707 L72.971,35.777 L72.927,35.847 L72.883,35.916 L72.837,35.985 L72.791,36.053 L72.744,36.12 L72.696,36.187 L72.647,36.253 L72.598,36.318 L72.548,36.383 L72.497,36.448 L72.445,36.511 L72.393,36.574 L72.34,36.637 L72.286,36.698 L72.231,36.759 L72.176,36.82 L72.12,36.879 L72.063,36.938 L72.006,36.997 L71.948,37.055 L71.889,37.111 L71.829,37.168 L71.769,37.223 L71.708,37.278 L71.647,37.332 L71.585,37.386 L71.522,37.438 L71.459,37.49 L71.395,37.541 L71.33,37.592 L71.265,37.641 L71.199,37.69 L71.133,37.738 L71.066,37.785 L70.998,37.832 L70.93,37.878 L70.861,37.923 L70.792,37.967 L70.722,38.01 L70.651,38.052 L70.58,38.094 L70.509,38.135 L70.437,38.175 L70.364,38.214 L70.291,38.252 L70.217,38.289 L70.143,38.326 L70.068,38.361 L69.993,38.396 L69.918,38.43 L69.841,38.463 L69.765,38.495 L69.688,38.526 L69.61,38.556 L69.532,38.585 L69.454,38.613 L69.375,38.641 L69.296,38.667 L69.216,38.692 L69.136,38.717 L69.055,38.741 L68.974,38.763 L68.893,38.785 L68.811,38.805 L68.729,38.825 L68.646,38.843 L68.563,38.861 L68.48,38.878 L68.396,38.893 L68.312,38.908 L68.228,38.921 L68.143,38.934 L68.058,38.945 L67.973,38.955 L67.887,38.965 L67.801,38.973 L67.715,38.98 L67.628,38.986 L67.542,38.991 L67.454,38.995 L67.367,38.998 L67.279,38.999 L67.191,39 L7.515,39 L7.427,38.999 L7.339,38.998 L7.252,38.995 L7.164,38.991 L7.077,38.986 L6.991,38.98 L6.905,38.973 L6.819,38.965 L6.733,38.955 L6.648,38.945 L6.562,38.934 L6.478,38.921 L6.393,38.908 L6.309,38.893 L6.226,38.878 L6.143,38.861 L6.06,38.843 L5.977,38.825 L5.895,38.805 L5.813,38.785 L5.732,38.763 L5.651,38.741 L5.57,38.717 L5.49,38.692 L5.41,38.667 L5.331,38.641 L5.252,38.613 L5.174,38.585 L5.096,38.556 L5.018,38.526 L4.941,38.495 L4.864,38.463 L4.788,38.43 L4.713,38.396 L4.638,38.361 L4.563,38.326 L4.489,38.289 L4.415,38.252 L4.342,38.214 L4.269,38.175 L4.197,38.135 L4.126,38.094 L4.055,38.052 L3.984,38.01 L3.914,37.967 L3.845,37.923 L3.776,37.878 L3.708,37.832 L3.64,37.785 L3.573,37.738 L3.507,37.69 L3.441,37.641 L3.376,37.592 L3.311,37.541 L3.247,37.49 L3.184,37.438 L3.121,37.386 L3.059,37.332 L2.997,37.278 L2.937,37.223 L2.877,37.168 L2.817,37.111 L2.758,37.055 L2.7,36.997 L2.643,36.938 L2.586,36.879 L2.53,36.82 L2.475,36.759 L2.42,36.698 L2.366,36.637 L2.313,36.574 L2.261,36.511 L2.209,36.448 L2.158,36.383 L2.108,36.318 L2.059,36.253 L2.01,36.187 L1.962,36.12 L1.915,36.053 L1.869,35.985 L1.823,35.916 L1.779,35.847 L1.735,35.777 L1.692,35.707 L1.649,35.636 L1.608,35.565 L1.568,35.493 L1.528,35.421 L1.489,35.348 L1.451,35.274 L1.414,35.2 L1.377,35.126 L1.342,35.051 L1.307,34.975 L1.274,34.899 L1.241,34.823 L1.209,34.746 L1.178,34.669 L1.148,34.591 L1.119,34.512 L1.091,34.434 L1.064,34.354 L1.037,34.275 L1.012,34.195 L0.988,34.114 L0.964,34.033 L0.942,33.952 L0.92,33.87 L0.9,33.788 L0.88,33.705 L0.862,33.622 L0.844,33.539 L0.828,33.456 L0.812,33.372 L0.798,33.287 L0.784,33.202 L0.772,33.117 L0.761,33.032 L0.75,32.946 L0.741,32.86 L0.733,32.774 L0.726,32.687 L0.72,32.6 L0.715,32.513 L0.711,32.425 L0.708,32.337 L0.707,32.249 L0.706,32.161 L0.706,6.839 L0.707,6.751 L0.708,6.663 L0.711,6.575 L0.715,6.487 L0.72,6.4 L0.726,6.313 L0.733,6.226 L0.741,6.14 L0.75,6.054 L0.761,5.968 L0.772,5.883 L0.784,5.798 L0.798,5.713 L0.812,5.628 L0.828,5.544 L0.844,5.461 L0.862,5.377 L0.88,5.295 L0.9,5.212 L0.92,5.13 L0.942,5.048 L0.964,4.967 L0.988,4.886 L1.012,4.805 L1.037,4.725 L1.064,4.646 L1.091,4.566 L1.119,4.488 L1.148,4.409 L1.178,4.331 L1.209,4.254 L1.241,4.177 L1.274,4.101 L1.307,4.025 L1.342,3.949 L1.377,3.874 L1.414,3.8 L1.451,3.726 L1.489,3.652 L1.528,3.579 L1.568,3.507 L1.608,3.435 L1.649,3.364 L1.692,3.293 L1.735,3.223 L1.779,3.153 L1.823,3.084 L1.869,3.015 L1.915,2.947 L1.962,2.88 L2.01,2.813 L2.059,2.747 L2.108,2.682 L2.158,2.617 L2.209,2.552 L2.261,2.489 L2.313,2.426 L2.366,2.363 L2.42,2.302 L2.475,2.241 L2.53,2.18 L2.586,2.121 L2.643,2.061 L2.7,2.003 L2.758,1.945 L2.817,1.888 L2.877,1.832 L2.937,1.777 L2.997,1.722 L3.059,1.668 L3.121,1.614 L3.184,1.562 L3.247,1.51 L3.311,1.459 L3.376,1.408 L3.441,1.359 L3.507,1.31 L3.573,1.262 L3.64,1.214 L3.708,1.168 L3.776,1.122 L3.845,1.077 L3.914,1.033 L3.984,0.99 L4.055,0.948 L4.126,0.906 L4.197,0.865 L4.269,0.825 L4.342,0.786 L4.415,0.748 L4.489,0.711 L4.563,0.674 L4.638,0.639 L4.713,0.604 L4.788,0.57 L4.864,0.537 L4.941,0.505 L5.018,0.474 L5.096,0.444 L5.174,0.415 L5.252,0.387 L5.331,0.359 L5.41,0.333 L5.49,0.307 L5.57,0.283 L5.651,0.259 L5.732,0.237 L5.813,0.215 L5.895,0.195 L5.977,0.175 L6.06,0.157 L6.143,0.139 L6.226,0.122 L6.309,0.107 L6.393,0.092 L6.478,0.079 L6.562,0.066 L6.648,0.055 L6.733,0.045 L6.819,0.035 L6.905,0.027 L6.991,0.02 L7.077,0.014 L7.164,0.009 L7.252,0.005 L7.339,0.002 L7.427,0.001 L7.515,0 L67.191,0 L67.279,0.001 L67.279,0.001 Z M7.521,1.8 L7.45,1.8 L7.384,1.802 L7.32,1.804 L7.256,1.807 L7.192,1.81 L7.128,1.815 L7.064,1.82 L7.001,1.826 L6.938,1.833 L6.876,1.84 L6.813,1.849 L6.751,1.858 L6.689,1.868 L6.627,1.879 L6.566,1.89 L6.504,1.902 L6.444,1.915 L6.384,1.929 L6.324,1.943 L6.264,1.958 L6.204,1.974 L6.145,1.99 L6.085,2.008 L6.026,2.026 L5.968,2.044 L5.91,2.064 L5.852,2.084 L5.795,2.104 L5.738,2.126 L5.681,2.148 L5.625,2.171 L5.568,2.194 L5.512,2.218 L5.457,2.243 L5.402,2.268 L5.347,2.295 L5.292,2.322 L5.238,2.349 L5.185,2.377 L5.132,2.405 L5.079,2.435 L5.026,2.465 L4.973,2.496 L4.922,2.527 L4.87,2.558 L4.82,2.591 L4.769,2.624 L4.719,2.657 L4.669,2.692 L4.619,2.727 L4.571,2.762 L4.522,2.798 L4.474,2.835 L4.426,2.872 L4.379,2.909 L4.333,2.947 L4.286,2.986 L4.24,3.026 L4.195,3.066 L4.15,3.106 L4.106,3.147 L4.062,3.188 L4.019,3.231 L3.976,3.273 L3.934,3.316 L3.892,3.359 L3.85,3.404 L3.809,3.449 L3.769,3.493 L3.73,3.539 L3.69,3.585 L3.651,3.632 L3.613,3.679 L3.576,3.725 L3.539,3.773 L3.502,3.822 L3.467,3.871 L3.431,3.92 L3.397,3.969 L3.362,4.02 L3.328,4.071 L3.296,4.121 L3.264,4.173 L3.232,4.225 L3.201,4.276 L3.171,4.328 L3.141,4.382 L3.111,4.436 L3.082,4.49 L3.055,4.543 L3.027,4.597 L3,4.653 L2.974,4.708 L2.949,4.763 L2.924,4.819 L2.9,4.876 L2.877,4.932 L2.854,4.989 L2.832,5.046 L2.81,5.104 L2.79,5.162 L2.769,5.221 L2.75,5.279 L2.732,5.337 L2.714,5.397 L2.696,5.457 L2.68,5.516 L2.664,5.576 L2.649,5.638 L2.635,5.698 L2.621,5.758 L2.608,5.82 L2.596,5.881 L2.585,5.944 L2.574,6.006 L2.564,6.068 L2.555,6.131 L2.547,6.194 L2.539,6.258 L2.532,6.322 L2.526,6.385 L2.521,6.448 L2.516,6.513 L2.513,6.578 L2.51,6.643 L2.508,6.708 L2.506,6.773 L2.506,6.845 L2.506,32.155 L2.506,32.227 L2.508,32.292 L2.51,32.357 L2.513,32.422 L2.516,32.487 L2.521,32.552 L2.526,32.615 L2.532,32.678 L2.539,32.742 L2.547,32.806 L2.555,32.869 L2.564,32.932 L2.574,32.994 L2.585,33.056 L2.596,33.119 L2.608,33.18 L2.621,33.242 L2.635,33.302 L2.649,33.362 L2.664,33.424 L2.68,33.484 L2.696,33.543 L2.714,33.602 L2.732,33.662 L2.75,33.721 L2.769,33.779 L2.79,33.838 L2.81,33.896 L2.832,33.954 L2.854,34.011 L2.877,34.068 L2.9,34.124 L2.924,34.181 L2.949,34.237 L2.974,34.292 L3,34.347 L3.027,34.403 L3.055,34.457 L3.082,34.51 L3.111,34.564 L3.141,34.618 L3.171,34.671 L3.201,34.724 L3.232,34.776 L3.264,34.827 L3.296,34.879 L3.328,34.929 L3.362,34.98 L3.397,35.03 L3.431,35.08 L3.467,35.129 L3.503,35.178 L3.539,35.227 L3.576,35.274 L3.613,35.321 L3.651,35.368 L3.69,35.415 L3.73,35.461 L3.769,35.507 L3.809,35.551 L3.85,35.596 L3.892,35.64 L3.934,35.684 L3.976,35.727 L4.019,35.769 L4.062,35.812 L4.106,35.853 L4.15,35.894 L4.195,35.934 L4.24,35.974 L4.286,36.014 L4.333,36.053 L4.379,36.091 L4.426,36.128 L4.474,36.165 L4.522,36.202 L4.571,36.238 L4.619,36.273 L4.669,36.308 L4.719,36.343 L4.769,36.376 L4.82,36.409 L4.87,36.442 L4.922,36.473 L4.973,36.504 L5.026,36.535 L5.079,36.565 L5.132,36.595 L5.185,36.623 L5.238,36.651 L5.292,36.678 L5.347,36.705 L5.402,36.732 L5.457,36.757 L5.512,36.782 L5.568,36.806 L5.625,36.829 L5.681,36.852 L5.738,36.874 L5.795,36.896 L5.852,36.916 L5.91,36.936 L5.968,36.956 L6.026,36.974 L6.085,36.992 L6.145,37.01 L6.204,37.026 L6.264,37.042 L6.324,37.057 L6.384,37.071 L6.444,37.085 L6.504,37.098 L6.566,37.11 L6.627,37.121 L6.689,37.132 L6.751,37.142 L6.813,37.151 L6.876,37.16 L6.938,37.167 L7.001,37.174 L7.064,37.18 L7.128,37.185 L7.192,37.19 L7.256,37.193 L7.32,37.196 L7.384,37.198 L7.45,37.199 L7.521,37.2 L67.185,37.2 L67.256,37.199 L67.322,37.198 L67.386,37.196 L67.45,37.193 L67.514,37.19 L67.578,37.185 L67.642,37.18 L67.705,37.174 L67.768,37.167 L67.83,37.159 L67.893,37.151 L67.955,37.142 L68.017,37.132 L68.079,37.121 L68.14,37.11 L68.201,37.098 L68.262,37.085 L68.322,37.071 L68.382,37.057 L68.442,37.042 L68.502,37.026 L68.561,37.01 L68.621,36.992 L68.679,36.974 L68.738,36.956 L68.796,36.936 L68.853,36.916 L68.911,36.896 L68.968,36.874 L69.025,36.852 L69.081,36.829 L69.138,36.806 L69.194,36.781 L69.249,36.757 L69.304,36.732 L69.359,36.705 L69.414,36.678 L69.468,36.651 L69.521,36.623 L69.575,36.594 L69.628,36.565 L69.68,36.535 L69.732,36.505 L69.784,36.473 L69.835,36.442 L69.886,36.409 L69.937,36.376 L69.987,36.343 L70.037,36.308 L70.086,36.274 L70.135,36.238 L70.184,36.202 L70.232,36.165 L70.28,36.128 L70.327,36.091 L70.373,36.053 L70.42,36.014 L70.466,35.974 L70.511,35.934 L70.556,35.894 L70.6,35.853 L70.644,35.812 L70.687,35.77 L70.73,35.727 L70.773,35.683 L70.814,35.64 L70.856,35.596 L70.897,35.551 L70.937,35.507 L70.976,35.461 L71.016,35.415 L71.055,35.368 L71.092,35.322 L71.13,35.274 L71.167,35.226 L71.203,35.178 L71.239,35.129 L71.275,35.08 L71.309,35.03 L71.343,34.98 L71.377,34.929 L71.41,34.878 L71.442,34.827 L71.474,34.776 L71.505,34.724 L71.536,34.67 L71.565,34.618 L71.595,34.564 L71.624,34.51 L71.651,34.457 L71.679,34.403 L71.705,34.348 L71.732,34.292 L71.757,34.236 L71.782,34.181 L71.806,34.124 L71.829,34.068 L71.852,34.011 L71.874,33.954 L71.896,33.896 L71.916,33.838 L71.937,33.779 L71.956,33.721 L71.974,33.662 L71.992,33.602 L72.01,33.543 L72.026,33.484 L72.042,33.424 L72.057,33.362 L72.071,33.302 L72.085,33.242 L72.098,33.18 L72.11,33.119 L72.121,33.056 L72.132,32.994 L72.142,32.932 L72.151,32.869 L72.159,32.806 L72.167,32.742 L72.174,32.679 L72.18,32.615 L72.185,32.551 L72.19,32.487 L72.193,32.422 L72.196,32.357 L72.198,32.292 L72.2,32.227 L72.2,32.155 L72.2,6.845 L72.2,6.773 L72.198,6.708 L72.196,6.643 L72.193,6.578 L72.19,6.513 L72.185,6.449 L72.18,6.385 L72.174,6.321 L72.167,6.258 L72.159,6.194 L72.151,6.131 L72.142,6.068 L72.132,6.006 L72.121,5.944 L72.11,5.881 L72.098,5.82 L72.085,5.758 L72.071,5.698 L72.057,5.638 L72.042,5.576 L72.026,5.516 L72.01,5.457 L71.992,5.397 L71.974,5.337 L71.956,5.279 L71.937,5.221 L71.916,5.162 L71.896,5.104 L71.874,5.046 L71.852,4.989 L71.829,4.932 L71.806,4.876 L71.782,4.819 L71.757,4.764 L71.732,4.708 L71.705,4.652 L71.679,4.597 L71.651,4.543 L71.624,4.49 L71.595,4.436 L71.565,4.382 L71.536,4.329 L71.505,4.276 L71.474,4.224 L71.442,4.173 L71.41,4.122 L71.377,4.071 L71.343,4.02 L71.309,3.969 L71.275,3.92 L71.239,3.871 L71.204,3.822 L71.167,3.774 L71.129,3.725 L71.092,3.678 L71.055,3.632 L71.016,3.585 L70.976,3.539 L70.937,3.493 L70.897,3.449 L70.856,3.404 L70.814,3.359 L70.773,3.317 L70.73,3.273 L70.687,3.23 L70.644,3.188 L70.6,3.147 L70.556,3.106 L70.511,3.066 L70.466,3.026 L70.42,2.986 L70.373,2.947 L70.327,2.909 L70.28,2.872 L70.232,2.835 L70.184,2.798 L70.135,2.762 L70.086,2.726 L70.037,2.692 L69.987,2.657 L69.937,2.624 L69.886,2.591 L69.835,2.558 L69.784,2.527 L69.732,2.495 L69.68,2.465 L69.628,2.435 L69.575,2.406 L69.521,2.377 L69.468,2.349 L69.414,2.322 L69.359,2.295 L69.304,2.268 L69.249,2.243 L69.194,2.219 L69.138,2.194 L69.081,2.171 L69.025,2.148 L68.968,2.126 L68.911,2.104 L68.853,2.084 L68.796,2.064 L68.738,2.044 L68.679,2.026 L68.621,2.008 L68.561,1.99 L68.502,1.974 L68.442,1.958 L68.382,1.943 L68.322,1.929 L68.262,1.915 L68.201,1.902 L68.14,1.89 L68.079,1.879 L68.017,1.868 L67.955,1.858 L67.893,1.849 L67.83,1.84 L67.768,1.833 L67.705,1.826 L67.642,1.82 L67.578,1.815 L67.514,1.81 L67.45,1.807 L67.386,1.804 L67.322,1.802 L67.256,1.8 L67.185,1.8 L7.521,1.8 L7.521,1.8 Z" id="Shape" fill="#E3E4E8"></path>
                                        </g>
                                        <path d="M5.996,19.427 C5.996,19.427 3.452,18.486 2.042,16.421 C0.493,14.153 0.394,10.742 0.394,10.742 C0.394,10.742 2.333,12.087 4.019,12.412 C5.791,12.755 7.314,12.078 7.314,12.078" id="Shape-229" stroke="#E0E1E5" stroke-width="1.8" fill="#FFFFFF"></path>
                                        <path d="M65.993,10.003 L15.989,10.003" id="Shape-230" stroke="#E0E1E5" stroke-width="1.8" fill="#E0E1E5"></path>
                                        <path d="M65.993,16.984 L15.989,16.984" id="Shape-2301" stroke="#E0E1E5" stroke-width="1.8" fill="#E0E1E5"></path>
                                        <path d="M65.993,30.947 L15.989,30.947" id="Shape-2302" stroke="#E0E1E5" stroke-width="1.8" fill="#E0E1E5"></path>
                                        <path d="M45.991,23.966 L15.989,23.966" id="Shape-2303" stroke="#E0E1E5" stroke-width="1.8" fill="#E0E1E5"></path>
                                    </g>
                                    <g id="Group-17112112201" transform="translate(53.000000, 20.000000)" stroke="#E0E1E5">
                                        <g id="Rounded-Rectangle-481" fill="#FFFFFF" stroke-width="2">
                                            <path d="M5.70752146,18.3070392 C5.00160518,17.9944549 3.16325157,17.0631167 2.042,15.421 C0.493,13.153 0.394,9.742 0.394,9.742 C0.394,9.742 2.333,11.087 4.019,11.412 C4.62797921,11.529878 5.20754965,11.5272864 5.706,11.4731059 L5.706,6.839 C5.706,3.062 8.754,0 12.515,0 L50.191,0 C53.952,0 57,3.062 57,6.839 L57,18.161 C57,21.938 53.952,25 50.191,25 L12.515,25 C8.80259406,25 5.78488249,22.0166141 5.70752146,18.3070392 Z" id="Combined-Shape"></path>
                                        </g>
                                        <path d="M44.993,10.003 L16.989,10.003" id="Shape-2304" stroke-width="1.8" fill="#E0E1E5"></path>
                                        <path d="M34.991,16.966 L16.989,16.966" id="Shape-2305" stroke-width="1.8" fill="#E0E1E5"></path>
                                    </g>
                                    <g id="Rounded-Rectangle-49" transform="translate(0.000000, 46.000000)">
                                        <g id="Shape">
                                            <use fill="#FFFFFF" fill-rule="evenodd" xlink:href="#path-2"></use>
                                            <path stroke="#E0E1E5" stroke-width="2" d="M6.348,-1 L121.44,-1 C125.575503,-1 128.758905,2.36130174 128.520326,6.47184477 L124.929325,68.4478553 C124.718014,72.0941409 121.438626,75 117.606,75 L10.606,75 C6.77445039,75 3.48212587,72.0972595 3.25102078,68.4535411 L-0.694977101,6.47757442 C-0.956948566,2.36520457 2.21096292,-1 6.348,-1 Z"></path>
                                        </g>
                                    </g>
                                </g>
                            </g>
                        </g>
                    </g>
                </g>
            </g>
        </g>
    </g>
</svg>