<?xml version="1.0" encoding="UTF-8"?>
<svg width="238px" height="143px" viewBox="0 0 238 143" version="1.1" xmlns="http://www.w3.org/2000/svg" xmlns:xlink="http://www.w3.org/1999/xlink">
    <!-- Generator: Sketch 49.3 (51167) - http://www.bohemiancoding.com/sketch -->
    <title>visual/empty/inbox</title>
    <desc>Created with Sketch.</desc>
    <defs>
        <rect id="path-1" x="15" y="0" width="44" height="38" rx="2"></rect>
        <path d="M11.0320718,16.7422708 C11.5666438,15.7800412 12.8923153,15 13.9968516,15 L59.0031484,15 C60.1059791,15 61.4361176,15.7850117 61.9679282,16.7422708 L70.0320718,31.2577292 C70.5666438,32.2199588 70.102349,33 69.0093775,33 L3.99062252,33 C2.89123206,33 2.43611763,32.2149883 2.96792823,31.2577292 L11.0320718,16.7422708 Z" id="path-2"></path>
        <rect id="path-3" x="12" y="6" width="50" height="38" rx="2"></rect>
        <path d="M0,34.0023584 C0,32.3442017 1.34922081,31 2.99009204,31 L19.5715657,31 C20.1193298,31 20.854504,31.3397772 21.2144719,31.7599041 L25.0531338,36.2400959 C25.4127217,36.6597793 26.1551955,37 26.7023273,37 L46.2976727,37 C46.8489092,37 47.5868983,36.6602228 47.9468662,36.2400959 L51.7855281,31.7599041 C52.1451161,31.3402207 52.885239,31 53.4284343,31 L70.009908,31 C71.6612902,31 73,32.3433124 73,34.0023584 L73,61.9976416 C73,63.6557983 71.6548339,65 70.0022182,65 L2.99778185,65 C1.34215265,65 0,63.6566876 0,61.9976416 L0,34.0023584 Z" id="path-4"></path>
        <rect id="path-5" x="27" y="50" width="20" height="2" rx="1"></rect>
    </defs>
    <g id="🔷/styleguide" stroke="none" stroke-width="1" fill="none" fill-rule="evenodd">
        <g id="visuals" transform="translate(-113.000000, -423.000000)">
            <g id="visual/empty/inbox" transform="translate(113.000000, 423.000000)">
                <g>
                    <path d="M0.519611943,86.0084775 C7.03381676,149.396455 184.073575,115.243522 224.172114,98.5064108 C264.270653,81.7692994 201.616013,37.2425947 194.13679,43.7820884 C186.657568,50.321582 178.438173,5.7115911 145.154914,7.8769576 C118.520887,9.226371 112.86763,42.5231609 87.5517046,18.1760496 C62.2357793,-6.17106179 13.8209011,-8.84092948 32.532185,35.9423691 C51.2434688,80.7256676 -5.99459287,22.6205005 0.519611943,86.0084775 Z" id="Path-2" fill="#F3F4F5"></path>
                    <g id="Group-8" transform="translate(82.000000, 56.000000)">
                        <g id="Rectangle-14">
                            <use fill="#FFFFFF" fill-rule="evenodd" xlink:href="#path-1"></use>
                            <rect stroke="#E0E1E5" stroke-width="2" x="16" y="1" width="42" height="36" rx="2"></rect>
                        </g>
                        <g id="Rectangle-20">
                            <use fill="#FFFFFF" fill-rule="evenodd" xlink:href="#path-2"></use>
                            <path stroke="#E0E1E5" stroke-width="2" d="M10.1579145,16.2566279 C10.8692128,14.976291 12.5298832,14 13.9968516,14 L59.0031484,14 C60.4671917,14 62.1329561,14.9801949 62.8420855,16.2566279 L70.906229,30.7720863 C71.8102455,32.3993159 70.8665876,34 69.0093775,34 L3.99062252,34 C2.12920012,34 1.19143928,32.3962833 2.09377095,30.7720863 L10.1579145,16.2566279 Z"></path>
                        </g>
                        <g id="Rectangle-14">
                            <use fill="#FFFFFF" fill-rule="evenodd" xlink:href="#path-3"></use>
                            <rect stroke="#E0E1E5" stroke-width="2" x="13" y="7" width="48" height="36" rx="2"></rect>
                        </g>
                        <g id="Rectangle-10">
                            <use fill="#FFFFFF" fill-rule="evenodd" xlink:href="#path-4"></use>
                            <path stroke="#E0E1E5" stroke-width="2" d="M1,34.0023584 L1,61.9976416 C1,63.1043912 1.8944266,64 2.99778185,64 L70.0022182,64 C71.1034037,64 72,63.102658 72,61.9976416 L72,34.0023584 C72,32.8950355 71.1084388,32 70.009908,32 L53.4284343,32 C53.1761363,32 52.713795,32.2134398 52.5449106,32.4105487 L48.7062486,36.8907404 C48.1565479,37.5323089 47.1412866,38 46.2976727,38 L26.7023273,38 C25.8618065,38 24.8424141,37.5310975 24.2937514,36.8907404 L20.4550894,32.4105487 C20.2847732,32.2117686 19.8268198,32 19.5715657,32 L2.99009204,32 C1.89824926,32 1,32.8997495 1,34.0023584 Z"></path>
                        </g>
                        <g id="Rectangle-11">
                            <use fill="#FFFFFF" fill-rule="evenodd" xlink:href="#path-5"></use>
                            <rect stroke="#E0E1E5" stroke-width="2" x="26" y="49" width="22" height="4" rx="1"></rect>
                        </g>
                        <rect id="Rectangle-15" fill="#E0E1E5" x="25" y="15" width="15" height="2" rx="1"></rect>
                        <rect id="Rectangle-15" fill="#E0E1E5" x="25" y="22" width="21" height="2" rx="1"></rect>
                    </g>
                    <g id="Group-5" opacity="0.699999988" transform="translate(167.000000, 73.000000)" fill="#E0E1E5">
                        <rect id="Rectangle-17" x="0" y="3" width="8" height="2" rx="1"></rect>
                        <rect id="Rectangle-17" transform="translate(4.000000, 4.000000) rotate(90.000000) translate(-4.000000, -4.000000) " x="0" y="3" width="8" height="2" rx="1"></rect>
                    </g>
                    <g id="Group-5" opacity="0.699999988" transform="translate(66.000000, 55.000000)" fill="#E0E1E5">
                        <rect id="Rectangle-17" x="0" y="3" width="8" height="2" rx="1"></rect>
                        <rect id="Rectangle-17" transform="translate(4.000000, 4.000000) rotate(90.000000) translate(-4.000000, -4.000000) " x="0" y="3" width="8" height="2" rx="1"></rect>
                    </g>
                    <rect id="Rectangle-17" fill="#E0E1E5" x="90" y="141" width="10" height="2" rx="1"></rect>
                    <rect id="Rectangle-17" fill="#E0E1E5" x="80" y="134" width="62" height="2" rx="1"></rect>
                    <rect id="Rectangle-17" fill="#E0E1E5" x="146" y="134" width="17" height="2" rx="1"></rect>
                    <rect id="Rectangle-17" fill="#E0E1E5" x="105" y="141" width="41" height="2" rx="1"></rect>
                    <rect id="Rectangle-22" fill="#E0E1E5" x="60" y="126" width="117" height="2" rx="1"></rect>
                </g>
            </g>
        </g>
    </g>
</svg>