<?xml version="1.0" encoding="UTF-8"?>
<svg width="310px" height="126px" viewBox="0 0 310 126" version="1.1" xmlns="http://www.w3.org/2000/svg" xmlns:xlink="http://www.w3.org/1999/xlink">
    <!-- Generator: Sketch 49.3 (51167) - http://www.bohemiancoding.com/sketch -->
    <title>visual/empty/visitors</title>
    <desc>Created with Sketch.</desc>
    <defs>
        <rect id="path-1" x="42" y="8" width="22" height="37"></rect>
        <rect id="path-2" x="42" y="8" width="22" height="28"></rect>
        <path d="M15.2844595,28.3189189 C23.104513,28.3189189 43.25,32.75 43.25,32.75 C40.25,26.6939189 28.6077157,8.67446403 27.1680756,6.45769127 C24.6438193,2.57081525 20.2643624,0 15.2844595,0 C9.48783265,0 4.50475337,3.48321108 2.31411388,8.470741 C1.54942804,10.2117365 1.125,37.4860327 1.125,39.5094595 C1.125,47.329513 7.46440593,28.3189189 15.2844595,28.3189189 Z" id="path-3"></path>
        <circle id="path-4" cx="21.5" cy="41.5" r="21.5"></circle>
        <path d="M15.2844595,28.3189189 C23.104513,28.3189189 43.25,32.75 43.25,32.75 C40.25,26.6939189 28.6077157,8.67446403 27.1680756,6.45769127 C24.6438193,2.57081525 20.2643624,0 15.2844595,0 C9.48783265,0 4.50475337,3.48321108 2.31411388,8.470741 C1.54942804,10.2117365 1.125,37.4860327 1.125,39.5094595 C1.125,47.329513 7.46440593,28.3189189 15.2844595,28.3189189 Z" id="path-5"></path>
        <circle id="path-6" cx="21.5" cy="41.5" r="21.5"></circle>
        <circle id="path-7" cx="21.5" cy="41.5" r="14.5"></circle>
        <circle id="path-8" cx="21.5" cy="41.5" r="14.5"></circle>
    </defs>
    <g id="🔷/styleguide" stroke="none" stroke-width="1" fill="none" fill-rule="evenodd">
        <g id="visuals" transform="translate(-494.000000, -503.000000)">
            <g id="visual/empty/visitors" transform="translate(494.000000, 503.000000)">
                <g>
                    <path d="M53.5673135,62.5794517 C87.1352406,62.5794517 25.8787414,73.6999931 53.5673135,95.8233869 C81.2558856,117.946781 112.567313,110.491145 140.567313,110.491145 C168.567313,110.491145 166.567313,125.158903 191.567313,125.158903 C216.567313,125.158903 296.567313,124.171514 307.567313,101.69049 C318.567313,79.2094667 288.398009,91.9119847 278.567313,79.1999275 C268.736618,66.4878704 277.669081,23.6906463 237.112286,30.2000223 C196.55549,36.7093984 155.124109,6.7173172 114.567313,0.750389168 C74.0105177,-5.21653887 81.5730069,26.2012045 26.417328,31.4686792 C-28.7383509,36.7361539 13.417328,62.5794517 53.5673135,62.5794517 Z" id="Path-3" fill="#F3F4F5"></path>
                    <g id="Group-11" transform="translate(116.000000, 42.000000)">
                        <g id="Rectangle">
                            <use fill="#FFFFFF" fill-rule="evenodd" xlink:href="#path-1"></use>
                            <rect stroke="#E0E1E5" stroke-width="2" x="43" y="9" width="20" height="35"></rect>
                        </g>
                        <g id="Rectangle">
                            <use fill="#FFFFFF" fill-rule="evenodd" xlink:href="#path-2"></use>
                            <rect stroke="#E0E1E5" stroke-width="2" x="43" y="9" width="20" height="26"></rect>
                        </g>
                        <g id="Group-10">
                            <g id="Oval-7" stroke-linejoin="round" transform="translate(22.187500, 20.698354) scale(-1, 1) translate(-22.187500, -20.698354) ">
                                <use fill="#FFFFFF" fill-rule="evenodd" xlink:href="#path-3"></use>
                                <path stroke="#E0E1E5" stroke-width="2" d="M15.2844595,29.3189189 C12.9159901,29.3189189 10.389352,31.454028 7.47349884,35.4475058 C6.81178775,36.3537683 3.986496,40.566221 3.40058533,41.2701429 C2.56898871,42.2692356 1.916837,42.7168758 1.04027364,42.2415373 C0.303002961,41.8417339 0.125,41.0244773 0.125,39.5094595 C0.125,37.7662162 0.268579098,29.8052507 0.433182356,23.8565288 C0.693001056,14.4667438 0.975608507,9.03149883 1.39853691,8.06859824 C3.79865602,2.60413642 9.21164344,-1 15.2844595,-1 C20.4808917,-1 25.2290816,1.63597562 28.0067373,5.91303866 C28.6163085,6.85166271 29.6127621,8.39752263 30.7087028,10.1105035 C32.3096232,12.6127795 33.9255389,15.1625462 35.4716486,17.6337023 C39.7180948,24.4208218 42.8011758,29.5911578 44.1460806,32.3061087 L45.0716687,34.1745876 L43.035181,33.7266539 C42.8795927,33.6924316 42.5825152,33.6279229 42.1598195,33.5374576 C41.4544156,33.3864872 40.6551033,33.2182122 39.777763,33.0369638 C37.2708402,32.5190624 34.6420148,32.001154 32.0185952,31.5179141 C30.4883103,31.2360321 29.0028902,30.9740726 27.5766444,30.7359153 C22.1587777,29.8312294 17.8997628,29.3189189 15.2844595,29.3189189 Z"></path>
                            </g>
                            <g id="Oval-7">
                                <use fill="#FFFFFF" fill-rule="evenodd" xlink:href="#path-4"></use>
                                <circle stroke="#E0E1E5" stroke-width="2" cx="21.5" cy="41.5" r="22.5"></circle>
                            </g>
                        </g>
                        <g id="Group-10" transform="translate(82.000000, 31.500000) scale(-1, 1) translate(-82.000000, -31.500000) translate(60.000000, 0.000000)">
                            <g id="Oval-7" stroke-linejoin="round" transform="translate(22.187500, 20.698354) scale(-1, 1) translate(-22.187500, -20.698354) ">
                                <use fill="#FFFFFF" fill-rule="evenodd" xlink:href="#path-5"></use>
                                <path stroke="#E0E1E5" stroke-width="2" d="M15.2844595,29.3189189 C12.9159901,29.3189189 10.389352,31.454028 7.47349884,35.4475058 C6.81178775,36.3537683 3.986496,40.566221 3.40058533,41.2701429 C2.56898871,42.2692356 1.916837,42.7168758 1.04027364,42.2415373 C0.303002961,41.8417339 0.125,41.0244773 0.125,39.5094595 C0.125,37.7662162 0.268579098,29.8052507 0.433182356,23.8565288 C0.693001056,14.4667438 0.975608507,9.03149883 1.39853691,8.06859824 C3.79865602,2.60413642 9.21164344,-1 15.2844595,-1 C20.4808917,-1 25.2290816,1.63597562 28.0067373,5.91303866 C28.6163085,6.85166271 29.6127621,8.39752263 30.7087028,10.1105035 C32.3096232,12.6127795 33.9255389,15.1625462 35.4716486,17.6337023 C39.7180948,24.4208218 42.8011758,29.5911578 44.1460806,32.3061087 L45.0716687,34.1745876 L43.035181,33.7266539 C42.8795927,33.6924316 42.5825152,33.6279229 42.1598195,33.5374576 C41.4544156,33.3864872 40.6551033,33.2182122 39.777763,33.0369638 C37.2708402,32.5190624 34.6420148,32.001154 32.0185952,31.5179141 C30.4883103,31.2360321 29.0028902,30.9740726 27.5766444,30.7359153 C22.1587777,29.8312294 17.8997628,29.3189189 15.2844595,29.3189189 Z"></path>
                            </g>
                            <g id="Oval-7">
                                <use fill="#FFFFFF" fill-rule="evenodd" xlink:href="#path-6"></use>
                                <circle stroke="#E0E1E5" stroke-width="2" cx="21.5" cy="41.5" r="22.5"></circle>
                            </g>
                            <g id="Oval-7">
                                <use fill="#FFFFFF" fill-rule="evenodd" xlink:href="#path-7"></use>
                                <circle stroke="#E0E1E5" stroke-width="2" cx="21.5" cy="41.5" r="15.5"></circle>
                            </g>
                        </g>
                        <circle id="Oval-13" fill="#E0E1E5" cx="85.5" cy="45.5" r="4.5"></circle>
                        <g id="Oval-7">
                            <use fill="#FFFFFF" fill-rule="evenodd" xlink:href="#path-8"></use>
                            <circle stroke="#E0E1E5" stroke-width="2" cx="21.5" cy="41.5" r="15.5"></circle>
                        </g>
                        <circle id="Oval-13" fill="#E0E1E5" cx="25.5" cy="45.5" r="4.5"></circle>
                    </g>
                    <path d="M213,109.25 C213,101.792808 220.35,93 227,93" id="Path-8" stroke="#E0E1E5" stroke-width="2" opacity="0.5" stroke-linecap="round" transform="translate(220.000000, 101.125000) scale(-1, -1) translate(-220.000000, -101.125000) "></path>
                    <path d="M133.58496,43.8486244 C133.58496,36.3914326 140.93496,27.5986244 147.58496,27.5986244" id="Path-8" stroke="#E0E1E5" stroke-width="2" opacity="0.5" stroke-linecap="round" transform="translate(140.584960, 35.723624) scale(-1, -1) rotate(-140.000000) translate(-140.584960, -35.723624) "></path>
                    <g id="Group-5" transform="translate(223.000000, 44.000000)" fill="#E0E1E5">
                        <rect id="Rectangle-17" x="0" y="3" width="8" height="2" rx="1"></rect>
                        <rect id="Rectangle-17" transform="translate(4.000000, 4.000000) rotate(90.000000) translate(-4.000000, -4.000000) " x="0" y="3" width="8" height="2" rx="1"></rect>
                    </g>
                    <g id="Group-5" transform="translate(93.000000, 22.000000)" fill="#E0E1E5">
                        <rect id="Rectangle-17" x="0" y="5" width="12" height="2" rx="1"></rect>
                        <rect id="Rectangle-17" transform="translate(6.000000, 6.000000) rotate(90.000000) translate(-6.000000, -6.000000) " x="0" y="5" width="12" height="2" rx="1"></rect>
                    </g>
                    <g id="Group-5" transform="translate(83.000000, 84.000000)" fill="#E0E1E5">
                        <rect id="Rectangle-17" x="0" y="3" width="8" height="2" rx="1"></rect>
                        <rect id="Rectangle-17" transform="translate(4.000000, 4.000000) rotate(90.000000) translate(-4.000000, -4.000000) " x="0" y="3" width="8" height="2" rx="1"></rect>
                    </g>
                    <path d="M287.708752,76.6718251 C292.205828,78.5039674 313.704233,57.1797482 304.531149,48.5234576 C292.705503,37.3640456 273.218172,54.2108147 276.54934,64.3465044 C279.880507,74.4821941 283.211675,74.8396828 287.708752,76.6718251 Z" id="Path-6" fill="#F3F4F5" transform="translate(291.478359, 60.814015) scale(-1, 1) rotate(-24.000000) translate(-291.478359, -60.814015) "></path>
                </g>
            </g>
        </g>
    </g>
</svg>