<?xml version="1.0" encoding="UTF-8"?>
<svg width="36px" height="36px" viewBox="0 0 36 36" version="1.1" xmlns="http://www.w3.org/2000/svg" xmlns:xlink="http://www.w3.org/1999/xlink">
    <!-- Generator: Sketch 49.3 (51167) - http://www.bohemiancoding.com/sketch -->
    <title>element/ava/--j</title>
    <desc>Created with Sketch.</desc>
    <defs>
        <circle id="path-1" cx="18" cy="18" r="18"></circle>
    </defs>
    <g id="🔷/styleguide" stroke="none" stroke-width="1" fill="none" fill-rule="evenodd">
        <g id="element/ava/--j">
            <g id="atom/ava1">
                <g id="Bitmap-Copy">
                    <mask id="mask-2" fill="white">
                        <use xlink:href="#path-1"></use>
                    </mask>
                    <g id="Mask">
                        <use fill="#FFFFFF" fill-rule="evenodd" xlink:href="#path-1"></use>
                        <circle stroke="#E0E1E5" stroke-width="1.25" cx="18" cy="18" r="17.375"></circle>
                    </g>
                </g>
            </g>
            <g id="Group" transform="translate(15.000000, 6.000000)">
                <path d="M0.876589479,22.9995751 L0.652121537,23 C0.454959175,23 0.296747423,22.9345608 0.177887833,22.8032574 C0.0594297952,22.6723789 0,22.5155797 0,22.3341345 L0,20.4994633 C0,20.3180182 0.0646499799,20.1616439 0.192745282,20.0303405 C0.321643689,19.899462 0.474233704,19.8335978 0.652121537,19.8335978 L0.868959979,19.8335978 C2.05795744,19.8331729 3.02569937,18.9759119 3.03613974,17.747439 L3.03613974,12.7114126 L0.652121537,12.7114126 C0.494311337,12.7114126 0.346138402,12.6459734 0.207602731,12.51467 C0.069468612,12.3833666 0,12.2274172 0,12.0455471 L0,10.3505009 C0,10.1890275 0.069468612,10.0377524 0.207602731,9.89625065 C0.346138402,9.75517385 0.494311337,9.68421053 0.652121537,9.68421053 L3.68826128,9.68421053 L4.60058894,9.68421053 L5.34787846,9.68421053 C5.5257663,9.68421053 5.67835631,9.75007469 5.80725472,9.88095317 C5.93535002,10.0126815 6,10.1686308 6,10.3505009 L6,17.7669857 C6,17.7903569 5.99558292,17.8094787 5.99477982,17.832425 C5.9397671,20.6964539 3.66778209,22.9953258 0.876589479,22.9995751 Z" id="Shape" fill="#373A49"></path>
                <path d="M0.0170124346,0 C-0.351855322,6.8865222 5.4,7.86842105 5.4,7.86842105 C5.10783869,0.323247109 0.0170124346,0 0.0170124346,0 L0.0170124346,0 Z" id="Shape" fill="#00C05A"></path>
            </g>
        </g>
    </g>
</svg>