<svg xmlns="http://www.w3.org/2000/svg" width="24" height="24" viewBox="0 0 24 24">
  <g fill="none" fill-rule="evenodd">
    <rect width="24" height="24"/>
    <g transform="translate(3 4)">
      <g transform="translate(6 2.996)">
        <rect width="2" height="6" x="2" fill="#0AB534" rx="1"/>
        <polyline stroke="#0AB534" points=".5 3.004 2.996 6.004 5.5 3.004"/>
      </g>
      <path fill="#0AB534" d="M4.5900163,9 C5.0069596,11.2822403 6.82293788,13 9,13 C11.1770621,13 12.9930404,11.2822403 13.4099837,9 L18,9 L18,15 C18,16.1045695 17.1045695,17 16,17 L2,17 C0.8954305,17 1.3527075e-16,16.1045695 0,15 L0,9 L4.5900163,9 Z"/>
      <path stroke="#0AB534" stroke-width="2" d="M17,9 L17,2 C17,0.8954305 16.1045695,-2.02906125e-16 15,0 L3,0 C1.8954305,2.02906125e-16 1,0.8954305 1,2 L1,9" transform="matrix(-1 0 0 1 18 0)"/>
    </g>
  </g>
</svg>
