<svg xmlns="http://www.w3.org/2000/svg" width="24" height="24" viewBox="0 0 24 24">
  <g fill="none" fill-rule="evenodd">
    <rect width="24" height="24"/>
    <path fill="#9DA0AA" fill-rule="nonzero" d="M10.5 9.5C11.3284271 9.5 12 8.82842712 12 8 12 7.17157288 11.3284271 6.5 10.5 6.5 9.67157288 6.5 9 7.17157288 9 8 9 8.82842712 9.67157288 9.5 10.5 9.5zM10.5 11.5C8.56700338 11.5 7 9.93299662 7 8 7 6.06700338 8.56700338 4.5 10.5 4.5 12.4329966 4.5 14 6.06700338 14 8 14 9.93299662 12.4329966 11.5 10.5 11.5zM14.5 18.5C15.3284271 18.5 16 17.8284271 16 17 16 16.1715729 15.3284271 15.5 14.5 15.5 13.6715729 15.5 13 16.1715729 13 17 13 17.8284271 13.6715729 18.5 14.5 18.5zM14.5 20.5C12.5670034 20.5 11 18.9329966 11 17 11 15.0670034 12.5670034 13.5 14.5 13.5 16.4329966 13.5 18 15.0670034 18 17 18 18.9329966 16.4329966 20.5 14.5 20.5z"/>
    <path fill="#9DA0AA" d="M14,7 L20,7 C20.5522847,7 21,7.44771525 21,8 C21,8.55228475 20.5522847,9 20,9 L14,9 C13.4477153,9 13,8.55228475 13,8 C13,7.44771525 13.4477153,7 14,7 Z M4,7 L7,7 C7.55228475,7 8,7.44771525 8,8 C8,8.55228475 7.55228475,9 7,9 L4,9 C3.44771525,9 3,8.55228475 3,8 C3,7.44771525 3.44771525,7 4,7 Z M17,16 L20,16 C20.5522847,16 21,16.4477153 21,17 C21,17.5522847 20.5522847,18 20,18 L17,18 C16.4477153,18 16,17.5522847 16,17 C16,16.4477153 16.4477153,16 17,16 Z M4,16 L11,16 C11.5522847,16 12,16.4477153 12,17 C12,17.5522847 11.5522847,18 11,18 L4,18 C3.44771525,18 3,17.5522847 3,17 C3,16.4477153 3.44771525,16 4,16 Z"/>
  </g>
</svg>
