<svg xmlns="http://www.w3.org/2000/svg" xmlns:xlink="http://www.w3.org/1999/xlink" width="24" height="24" viewBox="0 0 24 24">
  <defs>
    <path id="icon__nav__inbox__--solid-grey-a" d="M10,8.01662504 L11.116166,6.6795761 L11.883834,7.3204239 L8.99493027,10.7810253 L6.11561259,7.31975978 L6.88438741,6.68024022 L8,8.02133271 L8,4.99550898 C8,4.44322423 8.44771525,3.99550898 9,3.99550898 C9.55228475,3.99550898 10,4.44322423 10,4.99550898 L10,8.01662504 Z M2,10 L4.5900163,10 C5.0069596,12.2822403 6.82293788,14 9,14 C11.1770621,14 12.9930404,12.2822403 13.4099837,10 L16,10 L16,3 C16,2.44771525 15.5522847,2 15,2 L3,2 C2.44771525,2 2,2.44771525 2,3 L2,10 Z M0,10 L0,3 C-3.33066907e-16,1.34314575 1.34314575,3.33066907e-16 3,0 L15,0 C16.6568542,-2.22044605e-16 18,1.34314575 18,3 L18,10 L18,16 C18,17.1045695 17.1045695,18 16,18 L2,18 C0.8954305,18 1.3527075e-16,17.1045695 0,16 L0,10 Z"/>
  </defs>
  <g fill="none" fill-rule="evenodd">
    <rect width="24" height="24"/>
    <g transform="translate(3 3)">
      <use fill="#9DA0AA" xlink:href="#icon__nav__inbox__--solid-grey-a"/>
    </g>
  </g>
</svg>
