<svg xmlns="http://www.w3.org/2000/svg" width="24" height="24" viewBox="0 0 24 24">
  <g fill="none" fill-rule="evenodd">
    <rect width="24" height="24"/>
    <g transform="translate(2.244 3.991)">
      <path fill="#01C2CA" d="M18.2180171,9.76775821 C17.5256762,8.46100021 16.2345586,7.58224958 14.7560976,7.58224958 C12.5469586,7.58224958 10.7560976,9.54421766 10.7560976,11.9644279 C10.7560976,12.136359 10.7651354,12.3059774 10.782719,12.4727442 L10.7560976,12.4752994 L10.7560976,4.70061895 C10.7560976,2.30102622 11.9325505,1.02694323 13.0864011,1.00977889 C15.4664298,0.974496647 15.8913542,2.11687848 16.406688,3.23828169 L18.2180171,9.76775821 Z M18.7476239,11.676884 L18.7560976,11.7074297 L18.7493671,11.7080757 C18.7488192,11.6976687 18.7482381,11.6872714 18.7476239,11.6768839 Z"/>
      <rect width="3" height="5" x="8" y="4" fill="#01C2CA"/>
      <path fill="#01C2CA" d="M8.75473857,11.9036607 C8.69891,9.52507088 6.93002987,7.61574872 4.75609756,7.61574872 C3.09124093,7.61574872 1.66394392,8.73554974 1.06169588,10.3283497 L0.756097561,10.2657721 L3.11252629,3.02424339 C3.63495189,2.00626719 4.06636508,0.94305369 6.47850526,1.00127539 C8.0955471,1.04030584 8.75609756,2.6748369 8.75609756,4.3130038 L8.75609756,11.903939 L8.75473857,11.9036607 Z"/>
      <circle cx="4.756" cy="11.009" r="3" stroke="#01C2CA" stroke-width="2"/>
      <circle cx="14.756" cy="11.009" r="3" stroke="#01C2CA" stroke-width="2"/>
    </g>
  </g>
</svg>
