<svg xmlns="http://www.w3.org/2000/svg" xmlns:xlink="http://www.w3.org/1999/xlink" width="24" height="24" viewBox="0 0 24 24">
  <defs>
    <path id="icon__nav__team__--solid-grey-a" d="M0,11.5 L-1.11022302e-16,13 C-4.33869274e-17,13.5522847 0.44771525,14 1,14 L11,14 C11.5522847,14 12,13.5522847 12,13 L12,11.5 C12,9.17 7.99714286,8 6,8 C4.00285714,8 0,9.17 0,11.5 Z M7.97873701,5.25495783 C7.2514529,5.08503212 6.57106294,5 6,5 C5.42893706,5 4.7485471,5.08503212 4.02126299,5.25495783 C3.3951849,4.70513342 3,3.8987169 3,3 C3,1.34314575 4.34314575,0 6,0 C7.65685425,0 9,1.34314575 9,3 C9,3.8987169 8.6048151,4.70513342 7.97873701,5.25495783 Z M13.2637047,8.0438187 C13.5285936,8.01461088 13.7768204,8 14,8 C15.9971429,8 20,9.17 20,11.5 L20,13 C20,13.5522847 19.5522847,14 19,14 L15,14 L15,12 C15,10.4113894 14.3022105,9.09239821 13.2637047,8.0438187 Z M17,3 C17,4.65685425 15.6568542,6 14,6 C12.3431458,6 11,4.65685425 11,3 C11,1.34314575 12.3431458,0 14,0 C15.6568542,0 17,1.34314575 17,3 Z"/>
  </defs>
  <g fill="none" fill-rule="evenodd">
    <rect width="24" height="24"/>
    <g transform="translate(2 5)">
      <use fill="#9DA0AA" fill-rule="nonzero" xlink:href="#icon__nav__team__--solid-grey-a"/>
    </g>
  </g>
</svg>
