<svg xmlns="http://www.w3.org/2000/svg" width="36" height="36" viewBox="0 0 36 36">
  <defs>
    <linearGradient id="ava-2-a" x1="50%" x2="50%" y1="0%" y2="99.739%">
      <stop offset="0%" stop-color="#FFF" stop-opacity=".4"/>
      <stop offset="100%" stop-color="#FFF" stop-opacity="0"/>
    </linearGradient>
  </defs>
  <g fill="none" fill-rule="evenodd">
    <circle cx="18" cy="18" r="18" fill="#08890D"/>
    <circle cx="18" cy="18" r="18" fill="url(#ava-2-a)"/>
    <path fill="#FFF" fill-rule="nonzero" d="M8.06086957,0.782608696 C7.30173913,0.806086957 6.71478261,1.44 6.73826087,2.19130435 C6.74608696,2.37913043 6.78521739,2.55913043 6.86347826,2.73913043 L7.09043478,3.24 C7.12173913,3.34173913 7.06695652,3.45130435 6.9573913,3.4826087 C6.88695652,3.52173913 6.80869565,3.4826087 6.75391304,3.42 L6.42521739,2.98956522 C6.16695652,2.66086957 5.77565217,2.4573913 5.36086957,2.44956522 C4.60173913,2.43391304 3.97565217,3.03652174 3.96,3.78782609 C3.95217391,4.11652174 4.06173913,4.42956522 4.26521739,4.69565217 L4.59391304,5.08695652 L4.60173913,5.08695652 C4.66434783,5.18869565 4.64086957,5.31391304 4.55478261,5.37652174 C4.48434783,5.43130435 4.39043478,5.43130435 4.32782609,5.37652174 L3.91304348,5.04782609 C3.64695652,4.84434783 3.32608696,4.73478261 3.00521739,4.7426087 C2.25391304,4.75826087 1.65130435,5.38434783 1.66695652,6.14347826 C1.67478261,6.55826087 1.87826087,6.94956522 2.20695652,7.20782609 L2.65304348,7.55217391 C2.73913043,7.63043478 2.73913043,7.75565217 2.64521739,7.82608696 C2.59043478,7.88086957 2.51217391,7.89652174 2.44173913,7.86521739 L2.43391304,7.86521739 L1.95652174,7.64608696 C1.77652174,7.57565217 1.59652174,7.52869565 1.40869565,7.52086957 C0.657391304,7.4973913 0.0234782609,8.09217391 0,8.85130435 C0,9.41478261 0.313043478,9.93130435 0.829565217,10.1504348 L9.74347826,14.1182609 L13.3356522,10.526087 L9.36782609,1.61217391 C9.14869565,1.08782609 8.60869565,0.759130435 8.06086957,0.782608696 Z M8.71043478,3.99130435 C9.03913043,3.98347826 9.33652174,4.17130435 9.46173913,4.46869565 L11.8486957,9.82173913 L8.7573913,6.73826087 L8.02956522,5.08695652 C7.79478261,4.59391304 8.15478261,4.00695652 8.71043478,3.99130435 Z M6.14347826,6.14347826 C6.35478261,6.14347826 6.55043478,6.22173913 6.69913043,6.37826087 L10.4634783,10.1426087 C10.7765217,10.44 10.7843478,10.9330435 10.4869565,11.246087 C10.173913,11.5591304 9.68869565,11.5669565 9.36,11.246087 L5.59565217,7.48173913 C5.2826087,7.18434783 5.27478261,6.68347826 5.58,6.37826087 C5.72869565,6.22173913 5.93217391,6.14347826 6.14347826,6.14347826 Z M4.01478261,8.74173913 C4.11652174,8.74173913 4.22608696,8.77304348 4.30434783,8.81217391 L5.97130435,9.54782609 L9.05478261,12.6313043 L3.68608696,10.2443478 C2.88782609,9.9 3.15391304,8.71826087 4.01478261,8.74173913 Z M14.306087,11.7704348 L10.9878261,15.0886957 L11.6530435,15.753913 C12.2478261,16.3408696 13.1086957,16.5678261 13.9147826,16.3565217 C14.7208696,16.1373913 15.3547826,15.5034783 15.573913,14.6973913 C15.7852174,13.8913043 15.5582609,13.0304348 14.9713043,12.4356522 L14.306087,11.7704348 Z" transform="translate(10.174 10.174)"/>
    <rect width="36" height="36"/>
  </g>
</svg>
