<svg xmlns="http://www.w3.org/2000/svg" width="36" height="36" viewBox="0 0 36 36">
  <defs>
    <linearGradient id="ava-4-a" x1="50%" x2="50%" y1="0%" y2="99.739%">
      <stop offset="0%" stop-color="#FFF" stop-opacity=".4"/>
      <stop offset="100%" stop-color="#FFF" stop-opacity="0"/>
    </linearGradient>
  </defs>
  <g fill="none" fill-rule="evenodd">
    <circle cx="18" cy="18" r="18" fill="#9A88DB"/>
    <circle cx="18" cy="18" r="18" fill="url(#ava-4-a)"/>
    <path fill="#FFF" fill-rule="nonzero" d="M11.448,11.448 L3.75652174,15.026087 L7.3346087,7.3346087 L15.026087,3.75652174 L11.448,11.448 Z M9.39130435,4.17057693e-16 C4.20463018,-1.66823077e-15 4.17057693e-16,4.20463018 0,9.39130435 C-1.25117308e-15,11.8820331 0.989438153,14.2707481 2.75064936,16.0319593 C4.51186057,17.7931705 6.90057557,18.7826087 9.39130435,18.7826087 C11.8820331,18.7826087 14.2707481,17.7931705 16.0319593,16.0319593 C17.7931705,14.2707481 18.7826087,11.8820331 18.7826087,9.39130435 C18.7826087,6.90057557 17.7931705,4.51186057 16.0319593,2.75064936 C14.2707481,0.989438153 11.8820331,2.08528846e-16 9.39130435,0 L9.39130435,4.17057693e-16 Z M9.39130435,8.35826087 C8.82077019,8.35826087 8.35826087,8.82077019 8.35826087,9.39130435 C8.35826087,9.96183851 8.82077019,10.4243478 9.39130435,10.4243478 C9.96183851,10.4243478 10.4243478,9.96183851 10.4243478,9.39130435 C10.4243478,8.82077019 9.96183851,8.35826087 9.39130435,8.35826087 Z" transform="translate(8.609 8.609)"/>
    <rect width="36" height="36"/>
  </g>
</svg>
